<svg width="40" height="40" viewBox="0 0 40 40" fill="none" xmlns="http://www.w3.org/2000/svg">
<rect y="0.00488281" width="40" height="40" rx="20" fill="#FF3800"/>
<rect x="0.75" y="0.754883" width="38.5" height="38.5" rx="19.25" stroke="white" stroke-opacity="0.5" stroke-width="1.5"/>
<path d="M20 29.0049C19.45 29.0049 18.9792 28.809 18.5875 28.4174C18.1958 28.0257 18 27.5549 18 27.0049C18 26.4549 18.1958 25.984 18.5875 25.5924C18.9792 25.2007 19.45 25.0049 20 25.0049C20.55 25.0049 21.0208 25.2007 21.4125 25.5924C21.8042 25.984 22 26.4549 22 27.0049C22 27.5549 21.8042 28.0257 21.4125 28.4174C21.0208 28.809 20.55 29.0049 20 29.0049ZM18 23.0049V11.0049H22V23.0049H18Z" fill="white"/>
</svg>
