<svg width="96" height="34" viewBox="0 0 96 34" fill="none" xmlns="http://www.w3.org/2000/svg">
<path fill-rule="evenodd" clip-rule="evenodd" d="M7.21426 8.14048C8.38053 8.14048 9.3599 8.57409 9.3599 9.88988C9.3599 10.3983 9.16552 10.8543 8.76181 11.1758C8.3282 11.5271 7.75254 11.6393 7.20679 11.6393H2.29501V8.14048H7.21426ZM2.30248 2.80256H6.78813C7.77497 2.80256 8.4852 3.38569 8.4852 4.40244C8.4852 5.41918 7.72264 6.00232 6.78813 6.00232H2.30248V2.80256ZM0.00732422 0.679351C0.00732422 0.679351 0.00732422 0.724207 0.00732422 0.731684V13.7326C0.00732422 13.7326 0.00732422 13.7774 0.00732422 13.7849C0.0222764 13.7849 0.0521805 13.7849 0.0596565 13.7849H7.28902C8.44034 13.7849 9.62156 13.4859 10.4963 12.7084C11.3112 11.9832 11.6924 10.9889 11.6924 9.90483C11.6924 7.75172 9.88322 6.72002 9.173 6.67516C9.21785 6.81721 10.7878 5.77804 10.7878 4.12582C10.7878 3.17636 10.3991 2.30914 9.68885 1.68115C8.88891 0.970918 7.81983 0.671875 6.7657 0.671875H0.0671342C0.0671342 0.671875 0.029754 0.671875 0.0148019 0.671875L0.00732422 0.679351Z" fill="#222C57"/>
<path d="M16.0732 8.11808C16.7461 7.37795 17.5161 7.10881 18.5702 7.10881C20.0654 7.10881 21.1495 8.14798 21.1495 9.79272C21.1495 11.4375 20.0654 12.4617 18.5702 12.4617C17.546 12.4617 16.7162 12.1327 16.0732 11.4898V8.1106V8.11808ZM15.8564 16.5735C15.9985 16.5735 16.0732 16.4913 16.0732 16.3567V13.4186C16.761 13.9868 17.5684 14.2036 18.5702 14.2036C21.1196 14.2036 22.9512 12.4467 22.9512 9.8002C22.9512 7.15366 21.0971 5.38184 18.5702 5.38184C17.5684 5.38184 16.619 5.69583 15.976 6.32382L15.8639 6.30887L15.7218 5.69583C15.6919 5.56874 15.6097 5.50893 15.4826 5.50893H14.4584C14.3163 5.50893 14.2416 5.59117 14.2416 5.72573V16.3492C14.2416 16.4913 14.3163 16.566 14.4584 16.566H15.8415L15.8564 16.5735Z" fill="#222C57"/>
<path d="M30.9432 7.23601V10.062H28.6182C27.6762 10.062 27.123 9.43397 27.123 8.63403C27.123 7.83409 27.6538 7.23601 28.6182 7.23601H30.9432ZM25.3063 13.7925C25.224 13.9196 25.2614 14.0766 25.4483 14.0766H26.9435C27.1155 14.0766 27.2426 14.0168 27.3024 13.9047L28.5883 11.7815H30.9432V13.8523C30.9432 13.9944 31.018 14.0691 31.16 14.0691H32.5431C32.6852 14.0691 32.7599 13.9869 32.7599 13.8523V5.72584C32.7599 5.58379 32.6777 5.50903 32.5431 5.50903H28.663C26.7791 5.50903 25.3137 6.87716 25.3137 8.63403C25.3137 9.89001 25.9567 10.7273 26.9136 11.2731L25.2913 13.785L25.3063 13.7925Z" fill="#222C57"/>
<path d="M35.2944 5.50903C35.1523 5.50903 35.0776 5.59127 35.0776 5.72584V7.01172C35.0776 7.15377 35.1523 7.22853 35.2944 7.22853H38.0306V13.8449C38.0306 13.9869 38.1054 14.0617 38.2474 14.0617H39.6305C39.7725 14.0617 39.8473 13.9794 39.8473 13.8449V7.22853H42.5836C42.7256 7.22853 42.8004 7.15377 42.8004 7.01172V5.72584C42.8004 5.58379 42.7181 5.50903 42.5836 5.50903H35.2944Z" fill="#222C57"/>
<path d="M44.3181 9.8002C44.3181 12.3271 46.3441 14.2036 48.8261 14.2036C51.3082 14.2036 53.3193 12.3346 53.3193 9.8002C53.3193 7.26581 51.2932 5.38184 48.8261 5.38184C46.359 5.38184 44.3181 7.28076 44.3181 9.8002ZM48.8261 7.09386C50.3811 7.09386 51.4801 8.20779 51.4801 9.8002C51.4801 11.3926 50.3811 12.4841 48.8261 12.4841C47.2711 12.4841 46.1572 11.3552 46.1572 9.8002C46.1572 8.24517 47.2561 7.09386 48.8261 7.09386Z" fill="#222C57"/>
<path d="M57.7449 10.5404H60.6382C61.4082 10.5404 61.8044 10.8395 61.8044 11.4525C61.8044 12.0057 61.3783 12.3646 60.6382 12.3646H57.7449V10.5404ZM62.1409 9.37416C62.724 9.07512 63.0529 8.52937 63.0529 7.84904C63.0529 6.52578 61.954 5.50903 60.3466 5.50903H56.1525C56.0105 5.50903 55.9357 5.59127 55.9357 5.72584V13.8523C55.9357 13.9944 56.0105 14.0691 56.1525 14.0691H60.6756C62.4324 14.0691 63.6137 13.015 63.6137 11.46C63.6137 10.533 63.0829 9.80778 62.1334 9.47883V9.36669L62.1409 9.37416ZM57.7449 7.2061H60.369C60.9223 7.2061 61.2512 7.5201 61.2512 8.021C61.2512 8.52189 60.8774 8.83589 60.369 8.83589H57.7449V7.19863V7.2061Z" fill="#222C57"/>
<path d="M71.6879 11.2879C71.1346 12.0281 70.2898 12.4841 69.0937 12.4841C68.1068 12.4841 67.6658 12.0729 67.6658 11.43C67.6658 10.8768 68.062 10.4581 68.9217 10.316L71.6879 9.86001V11.2879ZM72.0019 13.0672L72.3981 14.0541C72.443 14.1812 72.5401 14.226 72.6672 14.1812L73.7812 13.8223C73.9531 13.7775 73.9681 13.6354 73.9232 13.5083L73.7214 12.8504C73.5494 12.2823 73.5195 11.7066 73.5195 11.0711V8.33489C73.5195 6.21168 71.8374 5.38184 69.9833 5.38184C68.4134 5.38184 67.3443 5.80797 66.2901 6.57801C66.178 6.66025 66.1481 6.81724 66.2602 6.93686L66.8733 7.80408C66.948 7.91623 67.1275 7.93118 67.2471 7.84894C68.1293 7.29571 68.832 7.09386 69.9833 7.09386C70.9253 7.09386 71.6954 7.3929 71.6954 8.13303V8.31993L68.9292 8.67878C66.9929 8.93297 65.8491 9.93477 65.8491 11.5197C65.8491 13.1046 67.105 14.1887 68.9143 14.1887C70.1702 14.1887 71.1646 13.7924 71.9346 13.0598H72.0168L72.0019 13.0672Z" fill="#222C57"/>
<path d="M76.7866 5.50903C76.6446 5.50903 76.5698 5.59127 76.5698 5.72584V13.8523C76.5698 13.9944 76.6446 14.0691 76.7866 14.0691H78.1697C78.3117 14.0691 78.3865 13.9869 78.3865 13.8523V10.4881H82.2815V13.8523C82.2815 13.9944 82.3638 14.0691 82.4984 14.0691H83.8814C84.0235 14.0691 84.0982 13.9869 84.0982 13.8523V5.72584C84.0982 5.58379 84.016 5.50903 83.8814 5.50903H82.4984C82.3563 5.50903 82.2815 5.59127 82.2815 5.72584V8.76113H78.3865V5.72584C78.3865 5.58379 78.3043 5.50903 78.1697 5.50903H76.7866Z" fill="#222C57"/>
<path d="M91.208 7.09383C92.4491 7.09383 93.563 7.84891 93.6901 8.94789H88.6138C88.868 7.86386 89.9371 7.09383 91.208 7.09383ZM94.2732 11.6094C94.191 11.5122 94.1013 11.5122 94.019 11.5944C93.2041 12.2673 92.3519 12.4916 91.2828 12.4916C89.8997 12.4916 88.9278 11.7365 88.6288 10.6524H95.3572C95.4843 10.6524 95.5441 10.5702 95.5441 10.4356V9.80764C95.5441 7.24335 93.7499 5.38928 91.208 5.38928C88.6662 5.38928 86.7299 7.24335 86.7299 9.80764C86.7299 12.3719 88.5989 14.2111 91.2903 14.2111C92.5462 14.2111 93.8845 13.8522 95.0133 12.8878C95.0956 12.8055 95.1105 12.7158 95.0283 12.6336L94.2732 11.6094Z" fill="#222C57"/>
<path d="M24.853 28.767C24.2998 29.5072 23.455 29.9632 22.2588 29.9632C21.2719 29.9632 20.8309 29.552 20.8309 28.9091C20.8309 28.3559 21.2271 27.9372 22.0868 27.7952L24.853 27.3391V28.767ZM31.2525 20.1546C31.1703 20.1845 31.1404 20.2667 31.1927 20.3714C31.6188 21.4554 32.4487 22.0984 33.6598 22.0984C34.8709 22.0984 35.7008 21.4554 36.1269 20.3714C36.1718 20.2593 36.1419 20.1845 36.0671 20.1546L34.9382 19.6537C34.8634 19.6238 34.7812 19.6537 34.7364 19.7659C34.4971 20.2667 34.1682 20.4761 33.6673 20.4761C33.1664 20.4761 32.8374 20.2742 32.5982 19.7659C32.5533 19.6537 32.4711 19.6238 32.3963 19.6537L31.2675 20.1546H31.2525ZM29.9517 22.988C29.8096 22.988 29.7349 23.0703 29.7349 23.2048V31.3313C29.7349 31.4734 29.8096 31.5481 29.9517 31.5481H31.3946C31.4917 31.5481 31.5665 31.5033 31.6487 31.4061L33.5477 28.8119L35.7755 25.5748H35.8877L35.8054 28.1017V31.3239C35.8054 31.4659 35.8877 31.5407 36.0222 31.5407H37.3754C37.5175 31.5407 37.5922 31.4584 37.5922 31.3239V23.1974C37.5922 23.0553 37.51 22.9806 37.3754 22.9806H36.0222C35.8802 22.9806 35.7681 23.0254 35.6933 23.1226L33.3533 26.2626L31.5441 28.8867H31.4319L31.5142 26.3747V23.1974C31.5142 23.0553 31.4319 22.9806 31.2974 22.9806H29.9442L29.9517 22.988ZM44.7468 24.9842C46.2047 24.9842 47.2737 25.9411 47.2737 27.4064C47.2737 28.8717 46.1075 29.9856 44.6795 29.9856C43.2516 29.9856 42.0853 28.8194 42.0853 27.4064C42.0853 25.9934 43.3114 24.9842 44.7393 24.9842H44.7468ZM42.0554 24.401C42.6087 23.2048 43.4834 22.4647 44.9786 22.4647C46.9896 22.4647 48.0288 21.9339 48.5746 20.5957C48.6344 20.4387 48.6045 20.3266 48.4624 20.2817L47.3335 19.7285C47.1915 19.6836 47.0943 19.7135 47.0196 19.8556C46.6906 20.4836 46.2645 20.7228 45.0085 20.7228C42.7432 20.7228 40.2163 22.233 40.2163 26.8008C40.2163 29.5819 41.9134 31.6752 44.6795 31.6752C47.0719 31.6752 49.0456 29.8212 49.0456 27.3989C49.0456 24.9767 47.2364 23.3319 44.7842 23.3319C43.603 23.3319 42.803 23.7282 42.1302 24.4608L42.048 24.401H42.0554ZM57.5085 22.988C57.4113 22.988 57.3515 23.0329 57.3216 23.1151L55.1984 29.0586H55.0713L52.5219 23.1151C52.492 23.0404 52.4248 22.988 52.335 22.988H50.6081C50.4959 22.988 50.4511 23.0852 50.4959 23.16L54.1592 31.0996L54.0994 31.3164C53.9274 31.9294 53.5312 32.1313 52.9855 32.1313C52.7687 32.1313 52.5743 32.1163 52.4023 32.0864C52.2603 32.0416 52.1631 32.1462 52.1631 32.2733V33.4545C52.1631 33.5966 52.2229 33.6714 52.35 33.7237C52.5518 33.8059 52.821 33.8358 53.1649 33.8358C54.4059 33.8358 55.2582 33.0957 55.774 31.8248L59.3102 23.1974C59.3551 23.0852 59.3252 22.9955 59.213 22.9955H57.501L57.5085 22.988ZM61.4783 22.988C61.3362 22.988 61.2615 23.0703 61.2615 23.2048V24.4907C61.2615 24.6328 61.3362 24.7075 61.4783 24.7075H64.2145V31.3239C64.2145 31.4659 64.2893 31.5407 64.4313 31.5407H65.8144C65.9565 31.5407 66.0312 31.4584 66.0312 31.3239V24.7075H68.7675C68.9095 24.7075 68.9843 24.6328 68.9843 24.4907V23.2048C68.9843 23.0628 68.902 22.988 68.7675 22.988H61.4783ZM71.5112 22.988C71.3691 22.988 71.2944 23.0703 71.2944 23.2048V31.3313C71.2944 31.4734 71.3691 31.5481 71.5112 31.5481H72.8942C73.0363 31.5481 73.1111 31.4659 73.1111 31.3313V27.9671H77.0061V31.3313C77.0061 31.4734 77.0883 31.5481 77.2229 31.5481H78.606C78.748 31.5481 78.8228 31.4659 78.8228 31.3313V23.2048C78.8228 23.0628 78.7405 22.988 78.606 22.988H77.2229C77.0809 22.988 77.0061 23.0703 77.0061 23.2048V26.2401H73.1111V23.2048C73.1111 23.0628 73.0288 22.988 72.8942 22.988H71.5112ZM87.1661 26.4121C87.1661 26.27 87.0838 26.1953 86.9493 26.1953H83.428C83.7869 25.186 84.699 24.5954 85.8802 24.5954C86.9493 24.5954 87.6221 24.9692 88.2501 25.7766C88.3099 25.8589 88.437 25.9187 88.5492 25.8065L89.536 25.0514C89.6182 24.9916 89.6332 24.9094 89.5659 24.7973C88.8258 23.631 87.3829 22.8609 85.8727 22.8609C83.3608 22.8609 81.4394 24.715 81.4394 27.2419C81.4394 29.7688 83.3533 31.6752 85.8727 31.6752C87.495 31.6752 88.7959 31.0323 89.6108 29.709C89.6706 29.6343 89.6556 29.5371 89.5809 29.4548L88.594 28.6699C88.4968 28.5876 88.4221 28.5876 88.3398 28.6699C87.6969 29.6118 86.9867 29.9408 85.8727 29.9408C84.4896 29.9408 83.5028 29.1857 83.2636 27.8699H86.9418C87.0839 27.8699 87.1586 27.7877 87.1586 27.6531V26.4121H87.1661ZM14.1472 22.988C14.0052 22.988 13.908 23.0478 13.8631 23.16L12.667 26.0383L11.426 29.2156H11.3661L10.1102 26.0383L8.85418 23.16C8.80932 23.0478 8.71213 22.988 8.59999 22.988H6.76087C6.61883 22.988 6.54407 23.0703 6.54407 23.2048V31.3313C6.54407 31.4734 6.61883 31.5481 6.76087 31.5481H8.08414C8.22619 31.5481 8.30095 31.4659 8.30095 31.3313V28.2213L8.21871 25.8514L8.3159 25.8364L9.60179 29.096L10.5288 31.3986C10.5737 31.5108 10.6709 31.5556 10.783 31.5556H11.8521C11.9642 31.5556 12.0539 31.5108 12.1063 31.3986L13.0782 29.096L14.3341 25.8514L14.4313 25.8663L14.3491 28.2138V31.3313C14.3491 31.4734 14.4313 31.5556 14.5659 31.5556H15.949C16.091 31.5556 16.1658 31.4734 16.1658 31.3313V23.1974C16.1658 23.0553 16.091 22.9806 15.949 22.9806L14.1398 22.9955L14.1472 22.988ZM25.167 30.5464L25.5632 31.5332C25.6081 31.6603 25.7053 31.7051 25.8323 31.6603L26.9463 31.3014C27.1182 31.2566 27.1332 31.1145 27.0883 30.9874L26.8865 30.3295C26.7145 29.7614 26.6846 29.1857 26.6846 28.5502V25.814C26.6846 23.6908 25.0025 22.8609 23.1484 22.8609C21.5785 22.8609 20.5094 23.2871 19.4553 24.0571C19.3431 24.1394 19.3132 24.2964 19.4254 24.416L20.0384 25.2832C20.1131 25.3953 20.2926 25.4103 20.4122 25.3281C21.2944 24.7748 21.9971 24.573 23.1484 24.573C24.0904 24.573 24.8605 24.872 24.8605 25.6121V25.799L22.0943 26.1579C20.158 26.4121 19.0142 27.4139 19.0142 28.9988C19.0142 30.5837 20.2701 31.6678 22.0794 31.6678C23.3353 31.6678 24.3297 31.2715 25.0997 30.5389H25.1819L25.167 30.5464Z" fill="#222C57"/>
</svg>
