<svg width="87" height="48" viewBox="0 0 87 48" fill="none" xmlns="http://www.w3.org/2000/svg">
<path d="M28.1001 21.0294H29.3907C29.5227 21.0294 29.596 21.1028 29.596 21.2348V27.4089H34.157C34.289 27.4089 34.3623 27.4823 34.3623 27.6143V28.8168C34.3623 28.9488 34.289 29.0222 34.157 29.0222H28.1001C27.9681 29.0222 27.8948 28.9488 27.8948 28.8168V21.2348C27.8948 21.1028 27.9681 21.0294 28.1001 21.0294Z" fill="#1E1E1E"/>
<path d="M38.4209 22.5107C36.9543 22.5107 35.9277 23.5519 35.9277 25.0331C35.9277 26.485 36.9543 27.5409 38.4209 27.5409C39.8728 27.5409 40.8993 26.485 40.8993 25.0331C40.8993 23.5519 39.8728 22.5107 38.4209 22.5107ZM34.2118 25.0331C34.2118 22.6866 36.1037 20.9121 38.4209 20.9121C40.7234 20.9121 42.6152 22.6866 42.6152 25.0331C42.6152 27.3943 40.7234 29.1395 38.4209 29.1395C36.1037 29.1395 34.2118 27.3943 34.2118 25.0331Z" fill="#1E1E1E"/>
<path d="M49.1461 24.6812H50.422C50.554 24.6812 50.6273 24.7545 50.6273 24.8865V28.8168C50.6273 28.9488 50.554 29.0222 50.422 29.0222H49.5567C49.4247 29.0222 49.3514 28.9782 49.3221 28.8755L49.1607 28.3915C48.5888 28.9048 47.8262 29.1395 46.9022 29.1395C44.5558 29.1395 42.9132 27.4089 42.9132 25.0038C42.9132 22.6426 44.7024 20.9121 47.0489 20.9121C48.4275 20.9121 49.8207 21.6161 50.5393 22.76C50.598 22.8626 50.5833 22.936 50.51 22.9946L49.586 23.6692C49.4834 23.7719 49.3661 23.7132 49.3074 23.6399C48.7208 22.892 48.0315 22.5253 47.0489 22.5253C45.5823 22.5253 44.6144 23.5519 44.6144 25.0038C44.6144 26.4557 45.5384 27.5263 46.9756 27.5263C47.9142 27.5263 48.4275 27.2916 48.9408 26.8223V24.8865C48.9408 24.7545 49.0141 24.6812 49.1461 24.6812Z" fill="#1E1E1E"/>
<path d="M55.2794 22.5107C53.8128 22.5107 52.7862 23.5519 52.7862 25.0331C52.7862 26.485 53.8128 27.5409 55.2794 27.5409C56.7313 27.5409 57.7578 26.485 57.7578 25.0331C57.7578 23.5519 56.7313 22.5107 55.2794 22.5107ZM51.0704 25.0331C51.0704 22.6866 52.9622 20.9121 55.2794 20.9121C57.5819 20.9121 59.4737 22.6866 59.4737 25.0331C59.4737 27.3943 57.5819 29.1395 55.2794 29.1395C52.9622 29.1395 51.0704 27.3943 51.0704 25.0331Z" fill="#1E1E1E"/>
</svg>
