<svg width="150" height="50" viewBox="0 0 150 50" fill="none" xmlns="http://www.w3.org/2000/svg">
<path fill-rule="evenodd" clip-rule="evenodd" d="M29.0446 22.3668C27.6989 21.1743 28.1923 19.4644 26.413 19.0819C25.5383 18.8944 24.6785 19.2994 24.3571 19.8544C24.1627 20.1994 24.1253 20.8368 24.0057 21.0018C23.9234 21.1143 23.5197 21.3168 23.3553 21.8718C25.2841 21.8718 24.9327 21.9318 25.2243 24.3992C25.3514 25.4491 25.8523 26.8365 26.5625 27.4665C26.9812 27.834 27.183 28.0965 27.7661 28.4264C28.1998 28.6739 28.8427 28.9364 29.381 29.0489C31.3696 29.4689 32.192 29.0339 33.5751 29.0339C33.7919 29.4914 34.9507 31.0738 35.3693 31.4938C35.6086 31.7338 35.9226 31.9663 36.4234 31.8238C37.3206 31.5688 39.2718 29.8589 39.07 28.7639C38.9055 27.9015 36.8122 28.164 34.6815 27.4065C33.9115 27.129 33.3358 26.8515 32.6854 26.4916C32.1546 26.1916 31.3771 25.5991 31.0556 25.2166C32.5508 25.3891 33.5227 25.6516 35.1974 24.7591C35.8852 24.3917 37.6047 22.9892 37.3206 21.9993C36.9468 21.8343 36.9094 21.8868 36.4683 21.9393C36.8047 21.5268 37.0888 21.3543 37.4626 20.7393C38.1056 19.6819 38.2775 18.2495 37.9486 17.0495C37.8065 16.5246 37.5972 15.8346 37.029 15.7596C36.6627 16.2546 36.73 17.072 35.6459 18.242C35.0703 18.8644 34.4273 19.5919 33.5452 20.0494C34.3152 18.9469 34.1582 16.8846 33.3807 15.5046C33.1564 15.0996 32.9246 14.5972 32.3266 14.6047C31.9228 16.0071 32.2219 16.7346 30.8612 18.6695C30.1062 19.7419 28.9773 20.4469 29.067 22.3818M0 31.3588C0 38.3559 3.23714 44.5956 8.29097 48.6529C5.34539 44.5506 7.2817 37.2385 10.4516 32.5437C10.6609 32.1988 10.8104 32.1313 10.7207 31.7113C10.4067 31.5613 9.3451 31.5688 8.22368 31.0063C6.08553 29.9264 4.91926 27.2265 4.94916 24.9241C4.98654 21.5643 6.99761 18.6695 10.0478 17.447C15.6923 15.1896 21.9423 20.1319 19.7294 24.6541C19.0715 26.0041 19.6995 26.9865 20.4844 27.9015C20.8508 28.329 19.9088 29.0114 19.7069 29.2439C19.5724 30.9088 18.436 32.3562 16.8212 32.7987C15.9539 33.0387 15.4755 32.8137 14.7802 32.9262C13.9653 33.0537 13.7036 34.3586 15.3633 35.4761C18.8472 37.8235 22.0769 37.156 24.5739 34.4411C25.2467 33.7062 25.8149 32.8212 26.6971 32.2438C29.6501 30.3239 30.8687 31.7413 29.0969 32.6787C28.8128 32.8287 28.8278 32.7537 28.7754 33.0162C30.5547 33.7362 32.1845 30.6163 32.9919 30.9988C33.7844 31.3738 32.8499 35.2211 28.6857 35.6861C27.1905 35.8511 27.5194 35.9861 27.0111 37.261C27.2952 37.576 27.5194 37.876 27.6839 38.1684C28.6035 39.8334 28.4689 40.2458 27.183 41.4533C25.613 42.9307 21.0153 44.6031 18.3837 43.2082C19.8041 51.2328 33.2611 52.0802 38.6065 46.0205C42.0604 42.1132 44.1537 36.976 44.1537 31.3438V20.0194C44.1537 17.417 43.0622 15.1821 41.0138 13.5922C35.5861 9.36994 30.1585 5.14766 24.7309 0.925382C23.1459 -0.304554 21.0078 -0.304554 19.4228 0.925382C13.9952 5.14766 8.56758 9.36994 3.13995 13.5922C1.09151 15.1971 0 17.432 0 20.0269V31.3588Z" fill="#FFE100"/>
<path fill-rule="evenodd" clip-rule="evenodd" d="M61.6702 24.2268C62.8365 24.2268 63.8159 24.6618 63.8159 25.9817C63.8159 26.4917 63.6215 26.9492 63.2178 27.2717C62.7842 27.6241 62.2085 27.7366 61.6628 27.7366H56.751V24.2268H61.6702ZM56.7584 18.8721H61.2441C62.2309 18.8721 62.9412 19.4571 62.9412 20.477C62.9412 21.497 62.1786 22.0819 61.2441 22.0819H56.7584V18.8721ZM54.4633 16.7422C54.4633 16.7422 54.4633 16.7872 54.4633 16.7947V29.8365C54.4633 29.8365 54.4633 29.8815 54.4633 29.889C54.4782 29.889 54.5081 29.889 54.5156 29.889H61.745C62.8963 29.889 64.0775 29.589 64.9522 28.8091C65.7671 28.0816 66.1484 27.0842 66.1484 25.9967C66.1484 23.8368 64.3392 22.8019 63.629 22.7569C63.6738 22.8994 65.2438 21.8569 65.2438 20.1995C65.2438 19.2471 64.855 18.3771 64.1448 17.7472C63.3449 17.0347 62.2758 16.7347 61.2217 16.7347H54.5231C54.5231 16.7347 54.4857 16.7347 54.4708 16.7347L54.4633 16.7422Z" fill="white"/>
<path d="M70.5292 24.2043C71.2021 23.4618 71.9721 23.1918 73.0262 23.1918C74.5215 23.1918 75.6055 24.2343 75.6055 25.8842C75.6055 27.5341 74.5215 28.5615 73.0262 28.5615C72.002 28.5615 71.1722 28.2316 70.5292 27.5866V24.1968V24.2043ZM70.3124 32.6863C70.4545 32.6863 70.5292 32.6038 70.5292 32.4688V29.5215C71.217 30.0915 72.0244 30.309 73.0262 30.309C75.5756 30.309 77.4072 28.5465 77.4072 25.8917C77.4072 23.2368 75.5532 21.4594 73.0262 21.4594C72.0244 21.4594 71.075 21.7744 70.432 22.4044L70.3199 22.3894L70.1778 21.7744C70.1479 21.6469 70.0657 21.5869 69.9386 21.5869H68.9144C68.7723 21.5869 68.6976 21.6694 68.6976 21.8044V32.4613C68.6976 32.6038 68.7723 32.6788 68.9144 32.6788H70.2975L70.3124 32.6863Z" fill="white"/>
<path d="M85.3992 23.3193V26.1542H83.0741C82.1321 26.1542 81.5789 25.5242 81.5789 24.7218C81.5789 23.9193 82.1097 23.3193 83.0741 23.3193H85.3992ZM79.7622 29.8965C79.68 30.024 79.7174 30.1815 79.9043 30.1815H81.3995C81.5714 30.1815 81.6985 30.1215 81.7583 30.009L83.0442 27.8791H85.3992V29.9565C85.3992 30.099 85.474 30.174 85.616 30.174H86.9991C87.1411 30.174 87.2159 30.0915 87.2159 29.9565V21.8044C87.2159 21.6619 87.1336 21.5869 86.9991 21.5869H83.119C81.235 21.5869 79.7697 22.9594 79.7697 24.7218C79.7697 25.9817 80.4126 26.8217 81.3696 27.3691L79.7473 29.889L79.7622 29.8965Z" fill="white"/>
<path d="M89.7503 21.5869C89.6083 21.5869 89.5335 21.6694 89.5335 21.8044V23.0944C89.5335 23.2369 89.6083 23.3118 89.7503 23.3118H92.4865V29.949C92.4865 30.0915 92.5613 30.1665 92.7034 30.1665H94.0864C94.2285 30.1665 94.3032 30.084 94.3032 29.949V23.3118H97.0395C97.1815 23.3118 97.2563 23.2369 97.2563 23.0944V21.8044C97.2563 21.6619 97.174 21.5869 97.0395 21.5869H89.7503Z" fill="white"/>
<path d="M98.774 25.8917C98.774 28.4265 100.8 30.309 103.282 30.309C105.764 30.309 107.775 28.434 107.775 25.8917C107.775 23.3493 105.749 21.4594 103.282 21.4594C100.815 21.4594 98.774 23.3643 98.774 25.8917ZM103.282 23.1768C104.837 23.1768 105.936 24.2943 105.936 25.8917C105.936 27.4891 104.837 28.584 103.282 28.584C101.727 28.584 100.613 27.4516 100.613 25.8917C100.613 24.3318 101.712 23.1768 103.282 23.1768Z" fill="white"/>
<path d="M112.201 26.6342H115.094C115.864 26.6342 116.26 26.9342 116.26 27.5491C116.26 28.1041 115.834 28.4641 115.094 28.4641H112.201V26.6342ZM116.597 25.4642C117.18 25.1642 117.509 24.6168 117.509 23.9343C117.509 22.6069 116.41 21.5869 114.803 21.5869H110.608C110.466 21.5869 110.392 21.6694 110.392 21.8044V29.9565C110.392 30.099 110.466 30.174 110.608 30.174H115.132C116.888 30.174 118.07 29.1165 118.07 27.5566C118.07 26.6267 117.539 25.8992 116.589 25.5692V25.4567L116.597 25.4642ZM112.201 23.2893H114.825C115.378 23.2893 115.707 23.6043 115.707 24.1068C115.707 24.6093 115.333 24.9243 114.825 24.9243H112.201V23.2819V23.2893Z" fill="white"/>
<path d="M126.144 27.3841C125.591 28.1266 124.746 28.584 123.55 28.584C122.563 28.584 122.122 28.1716 122.122 27.5266C122.122 26.9716 122.518 26.5516 123.378 26.4092L126.144 25.9517V27.3841ZM126.458 29.169L126.854 30.159C126.899 30.2865 126.996 30.3314 127.123 30.2865L128.237 29.9265C128.409 29.8815 128.424 29.739 128.379 29.6115L128.177 28.9515C128.005 28.3815 127.975 27.8041 127.975 27.1666V24.4218C127.975 22.2919 126.293 21.4594 124.439 21.4594C122.869 21.4594 121.8 21.8869 120.746 22.6593C120.634 22.7418 120.604 22.8993 120.716 23.0193L121.329 23.8893C121.404 24.0018 121.583 24.0168 121.703 23.9343C122.585 23.3793 123.288 23.1768 124.439 23.1768C125.381 23.1768 126.151 23.4768 126.151 24.2193V24.4068L123.385 24.7667C121.449 25.0217 120.305 26.0267 120.305 27.6166C120.305 29.2065 121.561 30.294 123.37 30.294C124.626 30.294 125.62 29.8965 126.39 29.1615H126.473L126.458 29.169Z" fill="white"/>
<path d="M131.243 21.5869C131.1 21.5869 131.026 21.6694 131.026 21.8044V29.9565C131.026 30.099 131.1 30.174 131.243 30.174H132.626C132.768 30.174 132.842 30.0915 132.842 29.9565V26.5817H136.737V29.9565C136.737 30.099 136.82 30.174 136.954 30.174H138.337C138.479 30.174 138.554 30.0915 138.554 29.9565V21.8044C138.554 21.6619 138.472 21.5869 138.337 21.5869H136.954C136.812 21.5869 136.737 21.6694 136.737 21.8044V24.8493H132.842V21.8044C132.842 21.6619 132.76 21.5869 132.626 21.5869H131.243Z" fill="white"/>
<path d="M145.664 23.1768C146.905 23.1768 148.019 23.9343 148.146 25.0367H143.07C143.324 23.9493 144.393 23.1768 145.664 23.1768ZM148.729 27.7066C148.647 27.6091 148.557 27.6091 148.475 27.6916C147.66 28.3666 146.808 28.5915 145.739 28.5915C144.356 28.5915 143.384 27.8341 143.085 26.7466H149.813C149.94 26.7466 150 26.6641 150 26.5292V25.8992C150 23.3268 148.206 21.4669 145.664 21.4669C143.122 21.4669 141.186 23.3268 141.186 25.8992C141.186 28.4716 143.055 30.3165 145.746 30.3165C147.002 30.3165 148.34 29.9565 149.469 28.989C149.551 28.9065 149.566 28.8165 149.484 28.734L148.729 27.7066Z" fill="white"/>
<path d="M72.7647 44.9182C72.2115 45.6607 71.3667 46.1181 70.1705 46.1181C69.1837 46.1181 68.7426 45.7057 68.7426 45.0607C68.7426 44.5057 69.1388 44.0857 69.9986 43.9432L72.7647 43.4858V44.9182ZM79.1642 36.2786C79.082 36.3086 79.0521 36.3911 79.1044 36.4961C79.5306 37.5836 80.3604 38.2285 81.5715 38.2285C82.7827 38.2285 83.6125 37.5836 84.0387 36.4961C84.0835 36.3836 84.0536 36.3086 83.9788 36.2786L82.85 35.7762C82.7752 35.7462 82.693 35.7762 82.6481 35.8887C82.4089 36.3911 82.0799 36.6011 81.579 36.6011C81.0781 36.6011 80.7492 36.3986 80.5099 35.8887C80.4651 35.7762 80.3829 35.7462 80.3081 35.7762L79.1792 36.2786H79.1642ZM77.8634 39.121C77.7214 39.121 77.6466 39.2035 77.6466 39.3385V47.4906C77.6466 47.6331 77.7214 47.708 77.8634 47.708H79.3063C79.4035 47.708 79.4782 47.663 79.5605 47.5656L81.4594 44.9632L83.6873 41.7159H83.7994L83.7172 44.2507V47.4831C83.7172 47.6256 83.7994 47.7005 83.934 47.7005H85.2872C85.4292 47.7005 85.504 47.6181 85.504 47.4831V39.331C85.504 39.1885 85.4217 39.1135 85.2872 39.1135H83.934C83.7919 39.1135 83.6798 39.1585 83.605 39.256L81.265 42.4058L79.4558 45.0382H79.3437L79.4259 42.5183V39.331C79.4259 39.1885 79.3437 39.1135 79.2091 39.1135H77.8559L77.8634 39.121ZM92.6586 41.1234C94.1164 41.1234 95.1855 42.0833 95.1855 43.5533C95.1855 45.0232 94.0192 46.1406 92.5913 46.1406C91.1633 46.1406 89.9971 44.9707 89.9971 43.5533C89.9971 42.1358 91.2232 41.1234 92.6511 41.1234H92.6586ZM89.9672 40.5384C90.5204 39.3385 91.3951 38.596 92.8903 38.596C94.9014 38.596 95.9406 38.0635 96.4863 36.7211C96.5461 36.5636 96.5162 36.4511 96.3742 36.4061L95.2453 35.8512C95.1032 35.8062 95.0061 35.8362 94.9313 35.9787C94.6023 36.6086 94.1762 36.8486 92.9202 36.8486C90.655 36.8486 88.1281 38.3635 88.1281 42.9458C88.1281 45.7356 89.8251 47.8355 92.5913 47.8355C94.9836 47.8355 96.9573 45.9756 96.9573 43.5458C96.9573 41.1159 95.1481 39.466 92.6959 39.466C91.5147 39.466 90.7148 39.8635 90.0419 40.5984L89.9597 40.5384H89.9672ZM105.42 39.121C105.323 39.121 105.263 39.166 105.233 39.2485L103.11 45.2107H102.983L100.434 39.2485C100.404 39.1735 100.336 39.121 100.247 39.121H98.5198C98.4077 39.121 98.3628 39.2185 98.4077 39.2935L102.071 47.2581L102.011 47.4756C101.839 48.0905 101.443 48.293 100.897 48.293C100.68 48.293 100.486 48.278 100.314 48.248C100.172 48.203 100.075 48.308 100.075 48.4355V49.6205C100.075 49.7629 100.135 49.8379 100.262 49.8904C100.464 49.9729 100.733 50.0029 101.077 50.0029C102.318 50.0029 103.17 49.2605 103.686 47.9855L107.222 39.331C107.267 39.2185 107.237 39.1285 107.125 39.1285H105.413L105.42 39.121ZM109.39 39.121C109.248 39.121 109.173 39.2035 109.173 39.3385V40.6284C109.173 40.7709 109.248 40.8459 109.39 40.8459H112.126V47.4831C112.126 47.6256 112.201 47.7005 112.343 47.7005H113.726C113.868 47.7005 113.943 47.6181 113.943 47.4831V40.8459H116.679C116.821 40.8459 116.896 40.7709 116.896 40.6284V39.3385C116.896 39.196 116.814 39.121 116.679 39.121H109.39ZM119.423 39.121C119.281 39.121 119.206 39.2035 119.206 39.3385V47.4906C119.206 47.6331 119.281 47.708 119.423 47.708H120.806C120.948 47.708 121.023 47.6256 121.023 47.4906V44.1157H124.918V47.4906C124.918 47.6331 125 47.708 125.135 47.708H126.518C126.66 47.708 126.735 47.6256 126.735 47.4906V39.3385C126.735 39.196 126.652 39.121 126.518 39.121H125.135C124.993 39.121 124.918 39.2035 124.918 39.3385V42.3833H121.023V39.3385C121.023 39.196 120.941 39.121 120.806 39.121H119.423ZM135.078 42.5558C135.078 42.4133 134.996 42.3383 134.861 42.3383H131.34C131.699 41.3259 132.611 40.7334 133.792 40.7334C134.861 40.7334 135.534 41.1084 136.162 41.9184C136.222 42.0008 136.349 42.0608 136.461 41.9483L137.448 41.1909C137.53 41.1309 137.545 41.0484 137.478 40.9359C136.738 39.766 135.295 38.9935 133.784 38.9935C131.273 38.9935 129.351 40.8534 129.351 43.3883C129.351 45.9231 131.265 47.8355 133.784 47.8355C135.407 47.8355 136.708 47.1906 137.523 45.8631C137.582 45.7882 137.567 45.6907 137.493 45.6082L136.506 44.8207C136.409 44.7382 136.334 44.7382 136.252 44.8207C135.609 45.7657 134.898 46.0956 133.784 46.0956C132.401 46.0956 131.415 45.3382 131.175 44.0182H134.854C134.996 44.0182 135.07 43.9357 135.07 43.8008V42.5558H135.078ZM62.059 39.121C61.9169 39.121 61.8197 39.181 61.7749 39.2935L60.5787 42.1808L59.3377 45.3682H59.2779L58.0219 42.1808L56.7659 39.2935C56.7211 39.181 56.6239 39.121 56.5117 39.121H54.6726C54.5306 39.121 54.4558 39.2035 54.4558 39.3385V47.4906C54.4558 47.6331 54.5306 47.708 54.6726 47.708H55.9959C56.1379 47.708 56.2127 47.6256 56.2127 47.4906V44.3707L56.1305 41.9933L56.2276 41.9783L57.5135 45.2482L58.4406 47.5581C58.4854 47.6706 58.5826 47.7155 58.6948 47.7155H59.7638C59.876 47.7155 59.9657 47.6706 60.018 47.5581L60.9899 45.2482L62.2459 41.9933L62.3431 42.0083L62.2608 44.3632V47.4906C62.2608 47.6331 62.3431 47.7155 62.4776 47.7155H63.8607C64.0028 47.7155 64.0775 47.6331 64.0775 47.4906V39.331C64.0775 39.1885 64.0028 39.1135 63.8607 39.1135L62.0515 39.1285L62.059 39.121ZM73.0787 46.7031L73.475 47.6931C73.5198 47.8205 73.617 47.8655 73.7441 47.8205L74.858 47.4606C75.03 47.4156 75.0449 47.2731 75.0001 47.1456L74.7982 46.4856C74.6263 45.9156 74.5964 45.3382 74.5964 44.7007V41.9558C74.5964 39.826 72.9142 38.9935 71.0602 38.9935C69.4902 38.9935 68.4211 39.421 67.367 40.1934C67.2549 40.2759 67.225 40.4334 67.3371 40.5534L67.9501 41.4234C68.0249 41.5359 68.2043 41.5509 68.3239 41.4684C69.2061 40.9134 69.9089 40.7109 71.0602 40.7109C72.0022 40.7109 72.7722 41.0109 72.7722 41.7534V41.9408L70.0061 42.3008C68.0697 42.5558 66.9259 43.5608 66.9259 45.1507C66.9259 46.7406 68.1819 47.828 69.9911 47.828C71.2471 47.828 72.2414 47.4306 73.0114 46.6956H73.0937L73.0787 46.7031Z" fill="white"/>
</svg>
