<svg width="125" height="42" viewBox="0 0 125 42" fill="none" xmlns="http://www.w3.org/2000/svg">
<path fill-rule="evenodd" clip-rule="evenodd" d="M24.2038 18.6365C23.0824 17.6428 23.4936 16.2179 22.0108 15.8992C21.2819 15.7429 20.5654 16.0804 20.2975 16.5429C20.1356 16.8304 20.1044 17.3616 20.0047 17.4991C19.9362 17.5928 19.5998 17.7616 19.4627 18.224C21.0701 18.224 20.7773 18.274 21.0202 20.3302C21.1261 21.2051 21.5435 22.3613 22.1354 22.8863C22.4843 23.1925 22.6525 23.4113 23.1384 23.6863C23.4998 23.8925 24.0356 24.1112 24.4841 24.205C26.1413 24.555 26.8266 24.1925 27.9792 24.1925C28.1599 24.5737 29.1255 25.8924 29.4744 26.2424C29.6738 26.4424 29.9354 26.6361 30.3529 26.5174C31.1005 26.3049 32.7265 24.8799 32.5583 23.9675C32.4212 23.2488 30.6768 23.4675 28.9013 22.8363C28.2596 22.6051 27.7798 22.3738 27.2378 22.0738C26.7955 21.8239 26.1476 21.3301 25.8797 21.0114C27.1257 21.1551 27.9356 21.3739 29.3311 20.6302C29.9043 20.3239 31.3372 19.1552 31.1005 18.3303C30.789 18.1928 30.7578 18.2365 30.3902 18.2803C30.6706 17.9366 30.9073 17.7928 31.2188 17.2803C31.7546 16.3991 31.8979 15.2055 31.6238 14.2055C31.5054 13.768 31.331 13.1931 30.8575 13.1306C30.5522 13.543 30.6083 14.2243 29.7049 15.1992C29.2252 15.7179 28.6894 16.3241 27.9543 16.7054C28.596 15.7867 28.4652 14.068 27.8172 12.9181C27.6303 12.5806 27.4372 12.1619 26.9388 12.1681C26.6024 13.3368 26.8516 13.943 25.7177 15.5554C25.0885 16.4491 24.1477 17.0366 24.2225 18.649M0 26.1299C0 31.9608 2.69762 37.1606 6.90914 40.5416C4.45449 37.1231 6.06808 31.0296 8.70962 27.1173C8.88407 26.8298 9.00867 26.7736 8.93391 26.4236C8.67225 26.2986 7.78758 26.3049 6.85307 25.8361C5.07127 24.9362 4.09938 22.6863 4.1243 20.7677C4.15545 17.9678 5.83134 15.5554 8.3732 14.5367C13.0769 12.6556 18.2852 16.7741 16.4411 20.5427C15.8929 21.6676 16.4162 22.4863 17.0704 23.2488C17.3756 23.605 16.5907 24.1737 16.4224 24.3675C16.3103 25.7549 15.3633 26.9611 14.0176 27.3298C13.295 27.5298 12.8962 27.3423 12.3168 27.4361C11.6378 27.5423 11.4197 28.6297 12.8028 29.5609C15.706 31.5171 18.3974 30.9609 20.4782 28.6985C21.0389 28.086 21.5124 27.3486 22.2475 26.8673C24.7084 25.2674 25.7239 26.4486 24.2474 27.2298C24.0107 27.3548 24.0231 27.2923 23.9795 27.5111C25.4623 28.111 26.8204 25.5112 27.4933 25.8299C28.1536 26.1424 27.3749 29.3485 23.9047 29.7359C22.6587 29.8734 22.9329 29.9859 22.5092 31.0484C22.746 31.3109 22.9329 31.5608 23.0699 31.8046C23.8362 33.192 23.7241 33.5357 22.6525 34.5419C21.3442 35.7731 17.5127 37.1668 15.3197 36.0044C16.5034 42.6915 27.7175 43.3977 32.172 38.348C35.0503 35.0919 36.7947 30.8109 36.7947 26.1174V16.6804C36.7947 14.5117 35.8852 12.6493 34.1781 11.3244C29.6551 7.80584 25.1321 4.28727 20.609 0.76871C19.2883 -0.256237 17.5065 -0.256237 16.1857 0.76871C11.6627 4.28727 7.13965 7.80584 2.61663 11.3244C0.909589 12.6618 0 14.5242 0 16.6866V26.1299Z" fill="#FFE100"/>
<path fill-rule="evenodd" clip-rule="evenodd" d="M51.3918 20.1866C52.3637 20.1866 53.1799 20.5491 53.1799 21.649C53.1799 22.074 53.0179 22.4552 52.6815 22.7239C52.3201 23.0177 51.8404 23.1114 51.3856 23.1114H47.2925V20.1866H51.3918ZM47.2987 15.7243H51.0367C51.8591 15.7243 52.4509 16.2118 52.4509 17.0617C52.4509 17.9117 51.8155 18.3992 51.0367 18.3992H47.2987V15.7243ZM45.3861 13.9494C45.3861 13.9494 45.3861 13.9869 45.3861 13.9931V24.8613C45.3861 24.8613 45.3861 24.8988 45.3861 24.9051C45.3985 24.9051 45.4234 24.9051 45.4297 24.9051H51.4541C52.4136 24.9051 53.3979 24.6551 54.1268 24.0051C54.8059 23.3989 55.1236 22.5677 55.1236 21.6615C55.1236 19.8616 53.616 18.9991 53.0241 18.9616C53.0615 19.0804 54.3698 18.2117 54.3698 16.8305C54.3698 16.0368 54.0458 15.3118 53.454 14.7869C52.7874 14.1931 51.8965 13.9431 51.018 13.9431H45.4359C45.4359 13.9431 45.4047 13.9431 45.3923 13.9431L45.3861 13.9494Z" fill="white"/>
<path d="M58.7743 20.1678C59.335 19.5491 59.9767 19.3241 60.8552 19.3241C62.1012 19.3241 63.0045 20.1928 63.0045 21.5677C63.0045 22.9426 62.1012 23.7988 60.8552 23.7988C60.0017 23.7988 59.3101 23.5238 58.7743 22.9864V20.1615V20.1678ZM58.5937 27.2361C58.712 27.2361 58.7743 27.1674 58.7743 27.0549V24.5988C59.3475 25.0738 60.0203 25.255 60.8552 25.255C62.9796 25.255 64.506 23.7863 64.506 21.5739C64.506 19.3616 62.9609 17.8804 60.8552 17.8804C60.0203 17.8804 59.2291 18.1429 58.6933 18.6679L58.5999 18.6554L58.4815 18.1429C58.4566 18.0366 58.3881 17.9866 58.2822 17.9866H57.4286C57.3103 17.9866 57.248 18.0554 57.248 18.1679V27.0487C57.248 27.1674 57.3103 27.2299 57.4286 27.2299H58.5812L58.5937 27.2361Z" fill="white"/>
<path d="M71.166 19.4303V21.7927H69.2284C68.4434 21.7927 67.9824 21.2677 67.9824 20.599C67.9824 19.9303 68.4247 19.4303 69.2284 19.4303H71.166ZM66.4685 24.9113C66.4 25.0175 66.4311 25.1488 66.5869 25.1488H67.8329C67.9762 25.1488 68.0821 25.0988 68.1319 25.005L69.2035 23.2301H71.166V24.9613C71.166 25.08 71.2283 25.1425 71.3466 25.1425H72.4992C72.6176 25.1425 72.6799 25.0738 72.6799 24.9613V18.1679C72.6799 18.0492 72.6113 17.9867 72.4992 17.9867H69.2658C67.6958 17.9867 66.4747 19.1304 66.4747 20.599C66.4747 21.649 67.0105 22.3489 67.808 22.8052L66.456 24.9051L66.4685 24.9113Z" fill="white"/>
<path d="M74.7919 17.9867C74.6735 17.9867 74.6112 18.0554 74.6112 18.1679V19.2428C74.6112 19.3616 74.6735 19.4241 74.7919 19.4241H77.0721V24.955C77.0721 25.0738 77.1344 25.1363 77.2528 25.1363H78.4053C78.5237 25.1363 78.586 25.0675 78.586 24.955V19.4241H80.8662C80.9846 19.4241 81.0469 19.3616 81.0469 19.2428V18.1679C81.0469 18.0492 80.9783 17.9867 80.8662 17.9867H74.7919Z" fill="white"/>
<path d="M82.3116 21.5739C82.3116 23.6863 84 25.255 86.0684 25.255C88.1367 25.255 89.8126 23.6926 89.8126 21.5739C89.8126 19.4553 88.1243 17.8804 86.0684 17.8804C84.0124 17.8804 82.3116 19.4678 82.3116 21.5739ZM86.0684 19.3116C87.3642 19.3116 88.28 20.2428 88.28 21.5739C88.28 22.9051 87.3642 23.8176 86.0684 23.8176C84.7725 23.8176 83.8442 22.8739 83.8442 21.5739C83.8442 20.274 84.76 19.3116 86.0684 19.3116Z" fill="white"/>
<path d="M93.5007 22.1927H95.9117C96.5534 22.1927 96.8836 22.4427 96.8836 22.9552C96.8836 23.4176 96.5285 23.7176 95.9117 23.7176H93.5007V22.1927ZM97.164 21.2177C97.6499 20.9678 97.924 20.5115 97.924 19.9428C97.924 18.8366 97.0082 17.9867 95.6688 17.9867H92.1737C92.0553 17.9867 91.993 18.0554 91.993 18.1679V24.9613C91.993 25.08 92.0553 25.1425 92.1737 25.1425H95.9429C97.4069 25.1425 98.3913 24.2613 98.3913 22.9614C98.3913 22.1864 97.949 21.5802 97.1577 21.3052V21.2115L97.164 21.2177ZM93.5007 19.4053H95.6874C96.1485 19.4053 96.4226 19.6678 96.4226 20.0866C96.4226 20.5053 96.1111 20.7678 95.6874 20.7678H93.5007V19.3991V19.4053Z" fill="white"/>
<path d="M105.12 22.8176C104.659 23.4363 103.955 23.8176 102.958 23.8176C102.136 23.8176 101.768 23.4738 101.768 22.9364C101.768 22.4739 102.098 22.1239 102.815 22.0052L105.12 21.6239V22.8176ZM105.381 24.3051L105.712 25.13C105.749 25.2363 105.83 25.2738 105.936 25.2363L106.864 24.9363C107.007 24.8988 107.02 24.78 106.983 24.6738L106.814 24.1238C106.671 23.6488 106.646 23.1676 106.646 22.6364V20.349C106.646 18.5741 105.244 17.8804 103.699 17.8804C102.391 17.8804 101.5 18.2366 100.622 18.8803C100.528 18.9491 100.503 19.0803 100.597 19.1803L101.108 19.9053C101.17 19.999 101.319 20.0115 101.419 19.9428C102.154 19.4803 102.74 19.3116 103.699 19.3116C104.484 19.3116 105.126 19.5616 105.126 20.1803V20.3365L102.821 20.6365C101.207 20.849 100.254 21.6864 100.254 23.0114C100.254 24.3363 101.301 25.2425 102.808 25.2425C103.855 25.2425 104.684 24.9113 105.325 24.2988H105.394L105.381 24.3051Z" fill="white"/>
<path d="M109.369 17.9867C109.25 17.9867 109.188 18.0554 109.188 18.1679V24.9613C109.188 25.08 109.25 25.1425 109.369 25.1425H110.521C110.64 25.1425 110.702 25.0738 110.702 24.9613V22.1489H113.948V24.9613C113.948 25.08 114.016 25.1425 114.128 25.1425H115.281C115.399 25.1425 115.462 25.0738 115.462 24.9613V18.1679C115.462 18.0492 115.393 17.9867 115.281 17.9867H114.128C114.01 17.9867 113.948 18.0554 113.948 18.1679V20.7053H110.702V18.1679C110.702 18.0492 110.633 17.9867 110.521 17.9867H109.369Z" fill="white"/>
<path d="M121.387 19.3116C122.421 19.3116 123.349 19.9428 123.455 20.8615H119.225C119.437 19.9553 120.327 19.3116 121.387 19.3116ZM123.941 23.0864C123.872 23.0051 123.798 23.0051 123.729 23.0739C123.05 23.6363 122.34 23.8238 121.449 23.8238C120.296 23.8238 119.486 23.1926 119.237 22.2864H124.844C124.95 22.2864 125 22.2177 125 22.1052V21.5802C125 19.4366 123.505 17.8866 121.387 17.8866C119.268 17.8866 117.655 19.4366 117.655 21.5802C117.655 23.7238 119.212 25.2613 121.455 25.2613C122.502 25.2613 123.617 24.9613 124.558 24.1551C124.626 24.0863 124.639 24.0113 124.57 23.9426L123.941 23.0864Z" fill="white"/>
<path d="M60.6372 37.4294C60.1762 38.0481 59.4722 38.4293 58.4754 38.4293C57.653 38.4293 57.2855 38.0856 57.2855 37.5481C57.2855 37.0856 57.6157 36.7357 58.3321 36.6169L60.6372 36.2357V37.4294ZM65.9702 30.2297C65.9016 30.2547 65.8767 30.3235 65.9203 30.411C66.2755 31.3172 66.967 31.8547 67.9763 31.8547C68.9855 31.8547 69.6771 31.3172 70.0322 30.411C70.0696 30.3172 70.0446 30.2547 69.9823 30.2297L69.0416 29.811C68.9793 29.786 68.9108 29.811 68.8734 29.9048C68.674 30.3235 68.3999 30.4985 67.9825 30.4985C67.5651 30.4985 67.2909 30.3297 67.0916 29.9048C67.0542 29.811 66.9857 29.786 66.9234 29.811L65.9826 30.2297H65.9702ZM64.8861 32.5984C64.7678 32.5984 64.7055 32.6671 64.7055 32.7796V39.573C64.7055 39.6918 64.7678 39.7542 64.8861 39.7542H66.0886C66.1695 39.7542 66.2318 39.7167 66.3004 39.6355L67.8828 37.4669L69.7394 34.7608H69.8328L69.7643 36.8731V39.5668C69.7643 39.6855 69.8328 39.748 69.945 39.748H71.0726C71.191 39.748 71.2533 39.6792 71.2533 39.5668V32.7734C71.2533 32.6546 71.1847 32.5921 71.0726 32.5921H69.945C69.8266 32.5921 69.7331 32.6296 69.6708 32.7109L67.7208 35.3357L66.2131 37.5294H66.1197L66.1882 35.4295V32.7734C66.1882 32.6546 66.1197 32.5921 66.0076 32.5921H64.8799L64.8861 32.5984ZM77.2154 34.267C78.4303 34.267 79.3212 35.067 79.3212 36.2919C79.3212 37.5169 78.3493 38.4481 77.1594 38.4481C75.9694 38.4481 74.9975 37.4731 74.9975 36.2919C74.9975 35.1107 76.0193 34.267 77.2092 34.267H77.2154ZM74.9726 33.7796C75.4336 32.7796 76.1626 32.1609 77.4086 32.1609C79.0845 32.1609 79.9504 31.7172 80.4052 30.5985C80.4551 30.4672 80.4302 30.3735 80.3118 30.336L79.371 29.8735C79.2527 29.836 79.1717 29.861 79.1094 29.9798C78.8353 30.5047 78.4801 30.7047 77.4335 30.7047C75.5458 30.7047 73.44 31.9672 73.44 35.7857C73.44 38.1106 74.8542 39.8605 77.1594 39.8605C79.153 39.8605 80.7977 38.3106 80.7977 36.2857C80.7977 34.2608 79.29 32.8859 77.2466 32.8859C76.2622 32.8859 75.5956 33.2171 75.0349 33.8296L74.9664 33.7796H74.9726ZM87.8502 32.5984C87.7692 32.5984 87.7193 32.6359 87.6944 32.7046L85.9251 37.6731H85.8192L83.6947 32.7046C83.6698 32.6421 83.6137 32.5984 83.5389 32.5984H82.0998C82.0064 32.5984 81.969 32.6796 82.0064 32.7421L85.0591 39.3793L85.0092 39.5605C84.866 40.073 84.5358 40.2417 84.081 40.2417C83.9003 40.2417 83.7383 40.2292 83.595 40.2042C83.4766 40.1667 83.3957 40.2542 83.3957 40.3605V41.3479C83.3957 41.4667 83.4455 41.5292 83.5514 41.5729C83.7196 41.6416 83.9439 41.6666 84.2305 41.6666C85.2647 41.6666 85.9749 41.0479 86.4048 39.9855L89.3516 32.7734C89.389 32.6796 89.3641 32.6046 89.2706 32.6046H87.8439L87.8502 32.5984ZM91.1583 32.5984C91.0399 32.5984 90.9776 32.6671 90.9776 32.7796V33.8546C90.9776 33.9733 91.0399 34.0358 91.1583 34.0358H93.4385V39.5668C93.4385 39.6855 93.5008 39.748 93.6192 39.748H94.7718C94.8901 39.748 94.9524 39.6792 94.9524 39.5668V34.0358H97.2326C97.351 34.0358 97.4133 33.9733 97.4133 33.8546V32.7796C97.4133 32.6609 97.3448 32.5984 97.2326 32.5984H91.1583ZM99.5191 32.5984C99.4007 32.5984 99.3384 32.6671 99.3384 32.7796V39.573C99.3384 39.6918 99.4007 39.7542 99.5191 39.7542H100.672C100.79 39.7542 100.852 39.6855 100.852 39.573V36.7607H104.098V39.573C104.098 39.6918 104.167 39.7542 104.279 39.7542H105.431C105.55 39.7542 105.612 39.6855 105.612 39.573V32.7796C105.612 32.6609 105.544 32.5984 105.431 32.5984H104.279C104.16 32.5984 104.098 32.6671 104.098 32.7796V35.317H100.852V32.7796C100.852 32.6609 100.784 32.5984 100.672 32.5984H99.5191ZM112.565 35.4607C112.565 35.342 112.496 35.2795 112.384 35.2795H109.45C109.749 34.4358 110.509 33.9421 111.493 33.9421C112.384 33.9421 112.945 34.2545 113.468 34.9295C113.518 34.9982 113.624 35.0482 113.717 34.9545L114.54 34.3233C114.608 34.2733 114.621 34.2045 114.565 34.1108C113.948 33.1358 112.745 32.4921 111.487 32.4921C109.394 32.4921 107.793 34.042 107.793 36.1544C107.793 38.2668 109.387 39.8605 111.487 39.8605C112.839 39.8605 113.923 39.323 114.602 38.2168C114.652 38.1543 114.639 38.0731 114.577 38.0043L113.755 37.3481C113.674 37.2794 113.611 37.2794 113.543 37.3481C113.007 38.1356 112.415 38.4106 111.487 38.4106C110.334 38.4106 109.512 37.7794 109.313 36.6794H112.378C112.496 36.6794 112.559 36.6107 112.559 36.4982V35.4607H112.565ZM51.7158 32.5984C51.5974 32.5984 51.5164 32.6484 51.4791 32.7421L50.4822 35.1482L49.4481 37.8043H49.3982L48.3516 35.1482L47.3049 32.7421C47.2675 32.6484 47.1865 32.5984 47.0931 32.5984H45.5605C45.4421 32.5984 45.3798 32.6671 45.3798 32.7796V39.573C45.3798 39.6918 45.4421 39.7542 45.5605 39.7542H46.6632C46.7816 39.7542 46.8439 39.6855 46.8439 39.573V36.9731L46.7754 34.992L46.8563 34.9795L47.9279 37.7044L48.7004 39.6293C48.7378 39.723 48.8188 39.7605 48.9123 39.7605H49.8032C49.8966 39.7605 49.9714 39.723 50.015 39.6293L50.8249 37.7044L51.8716 34.992L51.9525 35.0045L51.884 36.9669V39.573C51.884 39.6918 51.9525 39.7605 52.0647 39.7605H53.2172C53.3356 39.7605 53.3979 39.6918 53.3979 39.573V32.7734C53.3979 32.6546 53.3356 32.5921 53.2172 32.5921L51.7096 32.6046L51.7158 32.5984ZM60.8989 38.9168L61.2291 39.7417C61.2665 39.848 61.3475 39.8855 61.4534 39.848L62.3817 39.548C62.525 39.5105 62.5374 39.3918 62.5 39.2855L62.3318 38.7355C62.1885 38.2606 62.1636 37.7794 62.1636 37.2481V34.9608C62.1636 33.1858 60.7618 32.4921 59.2168 32.4921C57.9085 32.4921 57.0176 32.8484 56.1391 33.4921C56.0457 33.5608 56.0208 33.6921 56.1142 33.7921L56.6251 34.517C56.6874 34.6108 56.8369 34.6233 56.9366 34.5545C57.6717 34.092 58.2574 33.9233 59.2168 33.9233C60.0018 33.9233 60.6435 34.1733 60.6435 34.792V34.9482L58.3383 35.2482C56.7248 35.4607 55.7716 36.2982 55.7716 37.6231C55.7716 38.948 56.8182 39.8542 58.3259 39.8542C59.3725 39.8542 60.2011 39.523 60.8428 38.9105H60.9114L60.8989 38.9168Z" fill="white"/>
</svg>
