<svg width="124" height="42" viewBox="0 0 124 42" fill="none" xmlns="http://www.w3.org/2000/svg">
<path fill-rule="evenodd" clip-rule="evenodd" d="M24.0102 18.4874C22.8977 17.5017 23.3056 16.0882 21.8347 15.772C21.1116 15.617 20.4009 15.9518 20.1352 16.4105C19.9745 16.6957 19.9436 17.2227 19.8447 17.3591C19.7767 17.4521 19.443 17.6195 19.307 18.0782C20.9015 18.0782 20.611 18.1278 20.8521 20.1675C20.9571 21.0355 21.3712 22.1824 21.9583 22.7032C22.3044 23.007 22.4713 23.224 22.9533 23.4968C23.3118 23.7014 23.8433 23.9183 24.2883 24.0113C25.9322 24.3585 26.612 23.9989 27.7554 23.9989C27.9346 24.3771 28.8925 25.6852 29.2386 26.0324C29.4364 26.2308 29.696 26.423 30.11 26.3052C30.8517 26.0944 32.4647 24.6809 32.2978 23.7757C32.1619 23.0628 30.4314 23.2798 28.67 22.6536C28.0335 22.4242 27.5576 22.1948 27.0199 21.8972C26.5811 21.6493 25.9384 21.1595 25.6726 20.8433C26.9087 20.9859 27.7121 21.2029 29.0965 20.4651C29.6651 20.1613 31.0865 19.002 30.8517 18.1836C30.5426 18.0473 30.5117 18.0906 30.1471 18.134C30.4252 17.7931 30.6601 17.6505 30.9691 17.1421C31.5006 16.2679 31.6427 15.0838 31.3708 14.0919C31.2534 13.6579 31.0803 13.0875 30.6106 13.0255C30.3078 13.4347 30.3634 14.1105 29.4673 15.0776C28.9914 15.5922 28.4599 16.1935 27.7306 16.5717C28.3672 15.6604 28.2374 13.9555 27.5947 12.8147C27.4093 12.4799 27.2177 12.0646 26.7233 12.0708C26.3895 13.2301 26.6367 13.8315 25.5119 15.431C24.8877 16.3175 23.9545 16.9003 24.0287 18.4998M0 25.9208C0 31.7051 2.67604 36.8633 6.85386 40.2173C4.41886 36.8261 6.01953 30.7814 8.63995 26.9004C8.81299 26.6152 8.9366 26.5594 8.86244 26.2122C8.60287 26.0882 7.72528 26.0944 6.79824 25.6295C5.0307 24.7367 4.06659 22.5048 4.09131 20.6015C4.12221 17.8241 5.78469 15.431 8.30622 14.4204C12.9723 12.5543 18.1389 16.6399 16.3096 20.3783C15.7657 21.4943 16.2849 22.3064 16.9338 23.0628C17.2366 23.4162 16.4579 23.9803 16.2911 24.1725C16.1798 25.5489 15.2404 26.7454 13.9055 27.1112C13.1886 27.3096 12.7931 27.1236 12.2183 27.2166C11.5447 27.322 11.3283 28.4007 12.7004 29.3245C15.5803 31.265 18.2502 30.7132 20.3144 28.4689C20.8706 27.8613 21.3403 27.1298 22.0696 26.6524C24.5108 25.0653 25.5181 26.237 24.0534 27.012C23.8186 27.136 23.8309 27.074 23.7877 27.291C25.2586 27.8861 26.6059 25.3071 27.2733 25.6233C27.9284 25.9332 27.1559 29.1137 23.7135 29.498C22.4775 29.6344 22.7494 29.746 22.3291 30.8C22.564 31.0604 22.7494 31.3084 22.8854 31.5501C23.6455 32.9265 23.5343 33.2674 22.4713 34.2656C21.1734 35.4869 17.3726 36.8695 15.1972 35.7163C16.3714 42.35 27.4958 43.0505 31.9147 38.0412C34.7699 34.8112 36.5004 30.5644 36.5004 25.9084V16.5469C36.5004 14.3956 35.5981 12.5481 33.9047 11.2338C29.4178 7.74339 24.931 4.25298 20.4442 0.76256C19.134 -0.254187 17.3664 -0.254187 16.0562 0.76256C11.5694 4.25298 7.08253 7.74339 2.59569 11.2338C0.902312 12.5605 0 14.408 0 16.5531V25.9208Z" fill="#222C57"/>
<path fill-rule="evenodd" clip-rule="evenodd" d="M50.9807 20.0251C51.9448 20.0251 52.7544 20.3847 52.7544 21.4758C52.7544 21.8974 52.5937 22.2756 52.26 22.5421C51.9016 22.8335 51.4257 22.9265 50.9745 22.9265H46.9141V20.0251H50.9807ZM46.9203 15.5985H50.6284C51.4442 15.5985 52.0313 16.0821 52.0313 16.9252C52.0313 17.7684 51.401 18.252 50.6284 18.252H46.9203V15.5985ZM45.023 13.8378C45.023 13.8378 45.023 13.875 45.023 13.8812V24.6624C45.023 24.6624 45.023 24.6996 45.023 24.7058C45.0353 24.7058 45.06 24.7058 45.0662 24.7058H51.0425C51.9943 24.7058 52.9707 24.4578 53.6938 23.8131C54.3675 23.2117 54.6827 22.3871 54.6827 21.4882C54.6827 19.7027 53.187 18.8471 52.5999 18.8099C52.637 18.9277 53.9348 18.066 53.9348 16.6958C53.9348 15.9085 53.6135 15.1893 53.0264 14.6686C52.3651 14.0796 51.4813 13.8316 50.6099 13.8316H45.0724C45.0724 13.8316 45.0415 13.8316 45.0291 13.8316L45.023 13.8378Z" fill="#222C57"/>
<path d="M58.3041 20.0064C58.8603 19.3927 59.4969 19.1695 60.3683 19.1695C61.6044 19.1695 62.5005 20.0312 62.5005 21.3952C62.5005 22.7591 61.6044 23.6084 60.3683 23.6084C59.5216 23.6084 58.8356 23.3357 58.3041 22.8025V20.0002V20.0064ZM58.1249 27.0183C58.2423 27.0183 58.3041 26.9501 58.3041 26.8385V24.402C58.8727 24.8732 59.5402 25.053 60.3683 25.053C62.4758 25.053 63.9899 23.596 63.9899 21.4014C63.9899 19.2067 62.4572 17.7373 60.3683 17.7373C59.5402 17.7373 58.7553 17.9977 58.2238 18.5185L58.1311 18.5061L58.0137 17.9977C57.9889 17.8923 57.921 17.8427 57.8159 17.8427H56.9692C56.8518 17.8427 56.79 17.9109 56.79 18.0225V26.8323C56.79 26.9501 56.8518 27.0121 56.9692 27.0121H58.1125L58.1249 27.0183Z" fill="#222C57"/>
<path d="M70.5966 19.2749V21.6184H68.6746C67.8959 21.6184 67.4385 21.0976 67.4385 20.4342C67.4385 19.7709 67.8773 19.2749 68.6746 19.2749H70.5966ZM65.9367 24.712C65.8688 24.8174 65.8997 24.9476 66.0542 24.9476H67.2902C67.4324 24.9476 67.5374 24.898 67.5869 24.805L68.6499 23.0443H70.5966V24.7616C70.5966 24.8794 70.6584 24.9414 70.7759 24.9414H71.9192C72.0366 24.9414 72.0984 24.8732 72.0984 24.7616V18.0226C72.0984 17.9048 72.0304 17.8428 71.9192 17.8428H68.7117C67.1543 17.8428 65.9429 18.9773 65.9429 20.4342C65.9429 21.4758 66.4744 22.1701 67.2655 22.6227L65.9244 24.7058L65.9367 24.712Z" fill="#222C57"/>
<path d="M74.1936 17.8428C74.0761 17.8428 74.0143 17.911 74.0143 18.0226V19.0889C74.0143 19.2067 74.0761 19.2687 74.1936 19.2687H76.4555V24.7554C76.4555 24.8732 76.5173 24.9352 76.6347 24.9352H77.7781C77.8955 24.9352 77.9573 24.867 77.9573 24.7554V19.2687H80.2193C80.3367 19.2687 80.3985 19.2067 80.3985 19.0889V18.0226C80.3985 17.9048 80.3305 17.8428 80.2193 17.8428H74.1936Z" fill="#222C57"/>
<path d="M81.6531 21.4014C81.6531 23.4968 83.328 25.053 85.3798 25.053C87.4316 25.053 89.0941 23.503 89.0941 21.4014C89.0941 19.2997 87.4193 17.7373 85.3798 17.7373C83.3403 17.7373 81.6531 19.3121 81.6531 21.4014ZM85.3798 19.1571C86.6653 19.1571 87.5738 20.0808 87.5738 21.4014C87.5738 22.7219 86.6653 23.627 85.3798 23.627C84.0943 23.627 83.1735 22.6909 83.1735 21.4014C83.1735 20.1118 84.082 19.1571 85.3798 19.1571Z" fill="#222C57"/>
<path d="M92.7527 22.0152H95.1444C95.781 22.0152 96.1085 22.2631 96.1085 22.7715C96.1085 23.2303 95.7563 23.5279 95.1444 23.5279H92.7527V22.0152ZM96.3867 21.048C96.8687 20.8 97.1406 20.3474 97.1406 19.7833C97.1406 18.6859 96.2322 17.8428 94.9034 17.8428H91.4363C91.3189 17.8428 91.2571 17.911 91.2571 18.0226V24.7616C91.2571 24.8794 91.3189 24.9414 91.4363 24.9414H95.1753C96.6277 24.9414 97.6042 24.0672 97.6042 22.7777C97.6042 22.009 97.1654 21.4076 96.3805 21.1348V21.0418L96.3867 21.048ZM92.7527 19.2501H94.922C95.3793 19.2501 95.6512 19.5105 95.6512 19.9259C95.6512 20.3412 95.3422 20.6016 94.922 20.6016H92.7527V19.2439V19.2501Z" fill="#222C57"/>
<path d="M104.279 22.6351C103.821 23.2489 103.123 23.627 102.134 23.627C101.318 23.627 100.954 23.2861 100.954 22.7529C100.954 22.2941 101.281 21.9469 101.992 21.8291L104.279 21.451V22.6351ZM104.538 24.1106L104.866 24.929C104.903 25.0344 104.983 25.0716 105.088 25.0344L106.009 24.7368C106.151 24.6996 106.164 24.5818 106.127 24.4764L105.96 23.9308C105.818 23.4596 105.793 22.9823 105.793 22.4553V20.1862C105.793 18.4255 104.402 17.7373 102.87 17.7373C101.572 17.7373 100.688 18.0907 99.8167 18.7293C99.724 18.7975 99.6993 18.9277 99.792 19.0269L100.299 19.746C100.361 19.839 100.509 19.8514 100.608 19.7832C101.337 19.3245 101.918 19.1571 102.87 19.1571C103.648 19.1571 104.285 19.4051 104.285 20.0188V20.1738L101.998 20.4714C100.398 20.6822 99.4521 21.513 99.4521 22.8273C99.4521 24.1416 100.49 25.0406 101.986 25.0406C103.024 25.0406 103.846 24.712 104.483 24.1044H104.551L104.538 24.1106Z" fill="#222C57"/>
<path d="M108.494 17.8428C108.376 17.8428 108.315 17.911 108.315 18.0226V24.7616C108.315 24.8794 108.376 24.9414 108.494 24.9414H109.637C109.755 24.9414 109.816 24.8732 109.816 24.7616V21.9718H113.036V24.7616C113.036 24.8794 113.104 24.9414 113.215 24.9414H114.359C114.476 24.9414 114.538 24.8732 114.538 24.7616V18.0226C114.538 17.9048 114.47 17.8428 114.359 17.8428H113.215C113.098 17.8428 113.036 17.911 113.036 18.0226V20.5396H109.816V18.0226C109.816 17.9048 109.748 17.8428 109.637 17.8428H108.494Z" fill="#222C57"/>
<path d="M120.415 19.1571C121.441 19.1571 122.362 19.7832 122.467 20.6946H118.271C118.481 19.7956 119.365 19.1571 120.415 19.1571ZM122.949 22.9017C122.881 22.8211 122.807 22.8211 122.739 22.8893C122.066 23.4473 121.361 23.6332 120.477 23.6332C119.334 23.6332 118.531 23.0071 118.283 22.1081H123.845C123.951 22.1081 124 22.0399 124 21.9283V21.4076C124 19.2811 122.517 17.7436 120.415 17.7436C118.314 17.7436 116.714 19.2811 116.714 21.4076C116.714 23.534 118.259 25.0592 120.483 25.0592C121.522 25.0592 122.628 24.7616 123.561 23.9618C123.629 23.8936 123.642 23.8192 123.574 23.751L122.949 22.9017Z" fill="#222C57"/>
<path d="M60.1521 37.1299C59.6948 37.7437 58.9964 38.1219 58.0076 38.1219C57.1918 38.1219 56.8272 37.7809 56.8272 37.2477C56.8272 36.7889 57.1547 36.4418 57.8655 36.324L60.1521 35.9458V37.1299ZM65.4424 29.9879C65.3744 30.0127 65.3497 30.0809 65.393 30.1677C65.7452 31.0667 66.4313 31.5998 67.4324 31.5998C68.4336 31.5998 69.1196 31.0667 69.4719 30.1677C69.509 30.0747 69.4843 30.0127 69.4225 29.9879L68.4893 29.5725C68.4275 29.5477 68.3595 29.5725 68.3224 29.6655C68.1246 30.0809 67.8527 30.2545 67.4386 30.2545C67.0246 30.2545 66.7526 30.0871 66.5549 29.6655C66.5178 29.5725 66.4498 29.5477 66.388 29.5725L65.4548 29.9879H65.4424ZM64.3671 32.3376C64.2496 32.3376 64.1878 32.4058 64.1878 32.5174V39.2564C64.1878 39.3742 64.2496 39.4362 64.3671 39.4362H65.5598C65.6402 39.4362 65.702 39.399 65.77 39.3184L67.3397 37.1671L69.1814 34.4827H69.2742L69.2062 36.5782V39.2502C69.2062 39.368 69.2741 39.43 69.3854 39.43H70.504C70.6214 39.43 70.6832 39.3618 70.6832 39.2502V32.5112C70.6832 32.3934 70.6153 32.3314 70.504 32.3314H69.3854C69.268 32.3314 69.1753 32.3686 69.1135 32.4492L67.1791 35.053L65.6834 37.2291H65.5907L65.6587 35.146V32.5112C65.6587 32.3934 65.5907 32.3314 65.4795 32.3314H64.3609L64.3671 32.3376ZM76.5977 33.9929C77.8029 33.9929 78.6866 34.7865 78.6866 36.0016C78.6866 37.2167 77.7225 38.1405 76.5421 38.1405C75.3617 38.1405 74.3976 37.1733 74.3976 36.0016C74.3976 34.8299 75.4111 33.9929 76.5915 33.9929H76.5977ZM74.3728 33.5093C74.8302 32.5174 75.5533 31.9036 76.7893 31.9036C78.4518 31.9036 79.3108 31.4634 79.762 30.3537C79.8114 30.2235 79.7867 30.1305 79.6693 30.0933L78.7361 29.6345C78.6187 29.5973 78.5383 29.6221 78.4765 29.7399C78.2046 30.2607 77.8523 30.4591 76.814 30.4591C74.9414 30.4591 72.8525 31.7114 72.8525 35.4994C72.8525 37.8057 74.2554 39.5416 76.5421 39.5416C78.5198 39.5416 80.1513 38.0041 80.1513 35.9954C80.1513 33.9867 78.6557 32.6228 76.6286 32.6228C75.6521 32.6228 74.9909 32.9514 74.4346 33.5589L74.3667 33.5093H74.3728ZM87.1473 32.3376C87.067 32.3376 87.0176 32.3748 86.9928 32.443L85.2377 37.3717H85.1326L83.0251 32.443C83.0004 32.381 82.9448 32.3376 82.8706 32.3376H81.443C81.3503 32.3376 81.3132 32.4182 81.3503 32.4802L84.3786 39.0642L84.3292 39.244C84.187 39.7524 83.8595 39.9198 83.4083 39.9198C83.2291 39.9198 83.0684 39.9074 82.9263 39.8826C82.8088 39.8454 82.7285 39.9322 82.7285 40.0376V41.0171C82.7285 41.1349 82.7779 41.1969 82.883 41.2403C83.0499 41.3085 83.2724 41.3333 83.5566 41.3333C84.5826 41.3333 85.2871 40.7195 85.7135 39.6656L88.6368 32.5112C88.6739 32.4182 88.6491 32.3438 88.5564 32.3438H87.1412L87.1473 32.3376ZM90.4291 32.3376C90.3116 32.3376 90.2498 32.4058 90.2498 32.5174V33.5837C90.2498 33.7015 90.3116 33.7635 90.4291 33.7635H92.691V39.2502C92.691 39.368 92.7528 39.43 92.8702 39.43H94.0136C94.131 39.43 94.1928 39.3618 94.1928 39.2502V33.7635H96.4548C96.5722 33.7635 96.634 33.7015 96.634 33.5837V32.5174C96.634 32.3996 96.566 32.3376 96.4548 32.3376H90.4291ZM98.7229 32.3376C98.6055 32.3376 98.5437 32.4058 98.5437 32.5174V39.2564C98.5437 39.3742 98.6055 39.4362 98.7229 39.4362H99.8662C99.9837 39.4362 100.045 39.368 100.045 39.2564V36.4666H103.265V39.2564C103.265 39.3742 103.333 39.4362 103.445 39.4362H104.588C104.705 39.4362 104.767 39.368 104.767 39.2564V32.5174C104.767 32.3996 104.699 32.3376 104.588 32.3376H103.445C103.327 32.3376 103.265 32.4058 103.265 32.5174V35.0344H100.045V32.5174C100.045 32.3996 99.9775 32.3376 99.8662 32.3376H98.7229ZM111.664 35.177C111.664 35.0592 111.596 34.9972 111.485 34.9972H108.574C108.871 34.1603 109.625 33.6705 110.601 33.6705C111.485 33.6705 112.041 33.9805 112.56 34.6501C112.61 34.7183 112.715 34.7679 112.808 34.6749L113.623 34.0487C113.691 33.9991 113.704 33.9309 113.648 33.8379C113.036 32.8708 111.844 32.2322 110.595 32.2322C108.519 32.2322 106.93 33.7697 106.93 35.8652C106.93 37.9607 108.512 39.5416 110.595 39.5416C111.936 39.5416 113.012 39.0084 113.685 37.9111C113.735 37.8491 113.722 37.7685 113.66 37.7003L112.845 37.0493C112.764 36.9811 112.703 36.9811 112.635 37.0493C112.103 37.8305 111.516 38.1033 110.595 38.1033C109.452 38.1033 108.636 37.4771 108.438 36.386H111.479C111.596 36.386 111.658 36.3178 111.658 36.2062V35.177H111.664ZM51.3021 32.3376C51.1846 32.3376 51.1043 32.3872 51.0672 32.4802L50.0784 34.8671L49.0525 37.5019H49.003L47.9648 34.8671L46.9265 32.4802C46.8894 32.3872 46.809 32.3376 46.7163 32.3376H45.196C45.0786 32.3376 45.0168 32.4058 45.0168 32.5174V39.2564C45.0168 39.3742 45.0786 39.4362 45.196 39.4362H46.2899C46.4073 39.4362 46.4691 39.368 46.4691 39.2564V36.6774L46.4012 34.7121L46.4815 34.6997L47.5445 37.4027L48.3108 39.3122C48.3479 39.4052 48.4283 39.4424 48.521 39.4424H49.4047C49.4974 39.4424 49.5716 39.4052 49.6149 39.3122L50.4183 37.4027L51.4566 34.7121L51.5369 34.7245L51.4689 36.6712V39.2564C51.4689 39.3742 51.5369 39.4424 51.6482 39.4424H52.7915C52.9089 39.4424 52.9707 39.3742 52.9707 39.2564V32.5112C52.9707 32.3934 52.9089 32.3314 52.7915 32.3314L51.2959 32.3438L51.3021 32.3376ZM60.4117 38.6055L60.7393 39.4238C60.7763 39.5292 60.8567 39.5664 60.9618 39.5292L61.8826 39.2316C62.0247 39.1944 62.0371 39.0766 62 38.9712L61.8332 38.4257C61.691 37.9545 61.6663 37.4771 61.6663 36.9501V34.6811C61.6663 32.9204 60.2757 32.2322 58.7431 32.2322C57.4452 32.2322 56.5614 32.5856 55.69 33.2241C55.5973 33.2923 55.5726 33.4225 55.6653 33.5217L56.1721 34.2409C56.2339 34.3339 56.3822 34.3463 56.4811 34.2781C57.2104 33.8193 57.7913 33.6519 58.7431 33.6519C59.5218 33.6519 60.1583 33.8999 60.1583 34.5137V34.6687L57.8716 34.9662C56.271 35.177 55.3254 36.0078 55.3254 37.3221C55.3254 38.6365 56.3637 39.5354 57.8593 39.5354C58.8976 39.5354 59.7195 39.2068 60.3561 38.5993H60.4241L60.4117 38.6055Z" fill="#222C57"/>
</svg>
