<svg width="151" height="50" viewBox="0 0 151 50" fill="none" xmlns="http://www.w3.org/2000/svg">
<path fill-rule="evenodd" clip-rule="evenodd" d="M29.5446 22.3638C28.1989 21.1714 28.6923 19.4615 26.913 19.079C26.0383 18.8915 25.1785 19.2965 24.8571 19.8515C24.6627 20.1964 24.6253 20.8339 24.5057 20.9989C24.4234 21.1114 24.0197 21.3139 23.8553 21.8689C25.7841 21.8689 25.4327 21.9289 25.7243 24.3962C25.8514 25.4462 26.3523 26.8336 27.0625 27.4636C27.4812 27.8311 27.683 28.0935 28.2661 28.4235C28.6998 28.671 29.3427 28.9335 29.881 29.046C31.8696 29.466 32.692 29.031 34.0751 29.031C34.2919 29.4885 35.4507 31.0709 35.8693 31.4909C36.1086 31.7309 36.4226 31.9633 36.9234 31.8208C37.8206 31.5659 39.7718 29.8559 39.57 28.761C39.4055 27.8985 37.3122 28.161 35.1815 27.4036C34.4115 27.1261 33.8358 26.8486 33.1854 26.4886C32.6546 26.1886 31.8771 25.5962 31.5556 25.2137C33.0508 25.3862 34.0227 25.6487 35.6974 24.7562C36.3852 24.3887 38.1047 22.9863 37.8206 21.9964C37.4468 21.8314 37.4094 21.8839 36.9683 21.9364C37.3047 21.5239 37.5888 21.3514 37.9626 20.7364C38.6056 19.679 38.7775 18.2466 38.4486 17.0466C38.3065 16.5216 38.0972 15.8317 37.529 15.7567C37.1627 16.2517 37.23 17.0691 36.1459 18.2391C35.5703 18.8615 34.9273 19.589 34.0452 20.0465C34.8152 18.944 34.6582 16.8816 33.8807 15.5017C33.6564 15.0967 33.4246 14.5942 32.8266 14.6017C32.4228 16.0042 32.7219 16.7316 31.3612 18.6665C30.6062 19.739 29.4773 20.4439 29.567 22.3788M0.5 31.3559C0.5 38.353 3.73714 44.5927 8.79097 48.65C5.84539 44.5477 7.7817 37.2356 10.9516 32.5408C11.1609 32.1958 11.3104 32.1283 11.2207 31.7083C10.9067 31.5584 9.8451 31.5659 8.72368 31.0034C6.58553 29.9234 5.41926 27.2236 5.44916 24.9212C5.48654 21.5614 7.49761 18.6665 10.5478 17.4441C16.1923 15.1867 22.4423 20.129 20.2294 24.6512C19.5715 26.0011 20.1995 26.9836 20.9844 27.8985C21.3508 28.326 20.4088 29.0085 20.2069 29.241C20.0724 30.9059 18.936 32.3533 17.3212 32.7958C16.4539 33.0358 15.9755 32.8108 15.2802 32.9233C14.4653 33.0508 14.2036 34.3557 15.8633 35.4732C19.3472 37.8205 22.5769 37.1531 25.0739 34.4382C25.7467 33.7032 26.3149 32.8183 27.1971 32.2408C30.1501 30.3209 31.3687 31.7383 29.5969 32.6758C29.3128 32.8258 29.3278 32.7508 29.2754 33.0133C31.0547 33.7332 32.6845 30.6134 33.4919 30.9959C34.2844 31.3709 33.3499 35.2182 29.1857 35.6831C27.6905 35.8481 28.0194 35.9831 27.5111 37.2581C27.7952 37.573 28.0194 37.873 28.1839 38.1655C29.1035 39.8304 28.9689 40.2429 27.683 41.4503C26.113 42.9278 21.5153 44.6002 18.8837 43.2052C20.3041 51.2298 33.7611 52.0773 39.1065 46.0176C42.5604 42.1103 44.6537 36.9731 44.6537 31.3409V20.0165C44.6537 17.4141 43.5622 15.1792 41.5138 13.5893C36.0861 9.36701 30.6585 5.14473 25.2309 0.922452C23.6459 -0.307484 21.5078 -0.307484 19.9228 0.922452C14.4952 5.14473 9.06758 9.36701 3.63995 13.5893C1.59151 15.1942 0.5 17.4291 0.5 20.024V31.3559Z" fill="#FFE100"/>
<path fill-rule="evenodd" clip-rule="evenodd" d="M62.1702 24.2239C63.3365 24.2239 64.3159 24.6589 64.3159 25.9788C64.3159 26.4888 64.1215 26.9463 63.7178 27.2687C63.2842 27.6212 62.7085 27.7337 62.1628 27.7337H57.251V24.2239H62.1702ZM57.2584 18.8692H61.7441C62.7309 18.8692 63.4412 19.4541 63.4412 20.4741C63.4412 21.494 62.6786 22.079 61.7441 22.079H57.2584V18.8692ZM54.9633 16.7393C54.9633 16.7393 54.9633 16.7843 54.9633 16.7918V29.8336C54.9633 29.8336 54.9633 29.8786 54.9633 29.8861C54.9782 29.8861 55.0081 29.8861 55.0156 29.8861H62.245C63.3963 29.8861 64.5775 29.5861 65.4522 28.8062C66.2671 28.0787 66.6484 27.0812 66.6484 25.9938C66.6484 23.8339 64.8392 22.799 64.129 22.754C64.1738 22.8965 65.7438 21.854 65.7438 20.1966C65.7438 19.2442 65.355 18.3742 64.6448 17.7442C63.8449 17.0318 62.7758 16.7318 61.7217 16.7318H55.0231C55.0231 16.7318 54.9857 16.7318 54.9708 16.7318L54.9633 16.7393Z" fill="white"/>
<path d="M71.0292 24.2013C71.7021 23.4589 72.4721 23.1889 73.5262 23.1889C75.0215 23.1889 76.1055 24.2313 76.1055 25.8813C76.1055 27.5312 75.0215 28.5586 73.5262 28.5586C72.502 28.5586 71.6722 28.2286 71.0292 27.5837V24.1938V24.2013ZM70.8124 32.6834C70.9545 32.6834 71.0292 32.6009 71.0292 32.4659V29.5186C71.717 30.0885 72.5244 30.306 73.5262 30.306C76.0756 30.306 77.9072 28.5436 77.9072 25.8888C77.9072 23.2339 76.0532 21.4565 73.5262 21.4565C72.5244 21.4565 71.575 21.7715 70.932 22.4014L70.8199 22.3864L70.6778 21.7715C70.6479 21.644 70.5657 21.584 70.4386 21.584H69.4144C69.2723 21.584 69.1976 21.6665 69.1976 21.8015V32.4584C69.1976 32.6009 69.2723 32.6759 69.4144 32.6759H70.7975L70.8124 32.6834Z" fill="white"/>
<path d="M85.8992 23.3164V26.1513H83.5741C82.6321 26.1513 82.0789 25.5213 82.0789 24.7188C82.0789 23.9164 82.6097 23.3164 83.5741 23.3164H85.8992ZM80.2622 29.8936C80.18 30.0211 80.2174 30.1786 80.4043 30.1786H81.8995C82.0714 30.1786 82.1985 30.1186 82.2583 30.0061L83.5442 27.8762H85.8992V29.9536C85.8992 30.0961 85.974 30.1711 86.116 30.1711H87.4991C87.6411 30.1711 87.7159 30.0886 87.7159 29.9536V21.8015C87.7159 21.659 87.6336 21.584 87.4991 21.584H83.619C81.735 21.584 80.2697 22.9564 80.2697 24.7188C80.2697 25.9788 80.9126 26.8187 81.8696 27.3662L80.2473 29.8861L80.2622 29.8936Z" fill="white"/>
<path d="M90.2503 21.584C90.1083 21.584 90.0335 21.6665 90.0335 21.8015V23.0914C90.0335 23.2339 90.1083 23.3089 90.2503 23.3089H92.9865V29.9461C92.9865 30.0886 93.0613 30.1636 93.2034 30.1636H94.5864C94.7285 30.1636 94.8032 30.0811 94.8032 29.9461V23.3089H97.5395C97.6815 23.3089 97.7563 23.2339 97.7563 23.0914V21.8015C97.7563 21.659 97.674 21.584 97.5395 21.584H90.2503Z" fill="white"/>
<path d="M99.274 25.8888C99.274 28.4236 101.3 30.306 103.782 30.306C106.264 30.306 108.275 28.4311 108.275 25.8888C108.275 23.3464 106.249 21.4565 103.782 21.4565C101.315 21.4565 99.274 23.3614 99.274 25.8888ZM103.782 23.1739C105.337 23.1739 106.436 24.2913 106.436 25.8888C106.436 27.4862 105.337 28.5811 103.782 28.5811C102.227 28.5811 101.113 27.4487 101.113 25.8888C101.113 24.3288 102.212 23.1739 103.782 23.1739Z" fill="white"/>
<path d="M112.701 26.6312H115.594C116.364 26.6312 116.76 26.9312 116.76 27.5462C116.76 28.1012 116.334 28.4611 115.594 28.4611H112.701V26.6312ZM117.097 25.4613C117.68 25.1613 118.009 24.6138 118.009 23.9314C118.009 22.604 116.91 21.584 115.303 21.584H111.108C110.966 21.584 110.892 21.6665 110.892 21.8015V29.9536C110.892 30.0961 110.966 30.1711 111.108 30.1711H115.632C117.388 30.1711 118.57 29.1136 118.57 27.5537C118.57 26.6237 118.039 25.8963 117.089 25.5663V25.4538L117.097 25.4613ZM112.701 23.2864H115.325C115.878 23.2864 116.207 23.6014 116.207 24.1039C116.207 24.6064 115.833 24.9213 115.325 24.9213H112.701V23.2789V23.2864Z" fill="white"/>
<path d="M126.644 27.3812C126.091 28.1236 125.246 28.5811 124.05 28.5811C123.063 28.5811 122.622 28.1686 122.622 27.5237C122.622 26.9687 123.018 26.5487 123.878 26.4062L126.644 25.9487V27.3812ZM126.958 29.1661L127.354 30.156C127.399 30.2835 127.496 30.3285 127.623 30.2835L128.737 29.9235C128.909 29.8785 128.924 29.7361 128.879 29.6086L128.677 28.9486C128.505 28.3786 128.475 27.8012 128.475 27.1637V24.4188C128.475 22.2889 126.793 21.4565 124.939 21.4565C123.369 21.4565 122.3 21.884 121.246 22.6564C121.134 22.7389 121.104 22.8964 121.216 23.0164L121.829 23.8864C121.904 23.9988 122.083 24.0138 122.203 23.9314C123.085 23.3764 123.788 23.1739 124.939 23.1739C125.881 23.1739 126.651 23.4739 126.651 24.2163V24.4038L123.885 24.7638C121.949 25.0188 120.805 26.0237 120.805 27.6137C120.805 29.2036 122.061 30.291 123.87 30.291C125.126 30.291 126.12 29.8935 126.89 29.1586H126.973L126.958 29.1661Z" fill="white"/>
<path d="M131.743 21.584C131.6 21.584 131.526 21.6665 131.526 21.8015V29.9536C131.526 30.0961 131.6 30.1711 131.743 30.1711H133.126C133.268 30.1711 133.342 30.0886 133.342 29.9536V26.5788H137.237V29.9536C137.237 30.0961 137.32 30.1711 137.454 30.1711H138.837C138.979 30.1711 139.054 30.0886 139.054 29.9536V21.8015C139.054 21.659 138.972 21.584 138.837 21.584H137.454C137.312 21.584 137.237 21.6665 137.237 21.8015V24.8463H133.342V21.8015C133.342 21.659 133.26 21.584 133.126 21.584H131.743Z" fill="white"/>
<path d="M146.164 23.1739C147.405 23.1739 148.519 23.9314 148.646 25.0338H143.57C143.824 23.9464 144.893 23.1739 146.164 23.1739ZM149.229 27.7037C149.147 27.6062 149.057 27.6062 148.975 27.6887C148.16 28.3636 147.308 28.5886 146.239 28.5886C144.856 28.5886 143.884 27.8312 143.585 26.7437H150.313C150.44 26.7437 150.5 26.6612 150.5 26.5262V25.8963C150.5 23.3239 148.706 21.464 146.164 21.464C143.622 21.464 141.686 23.3239 141.686 25.8963C141.686 28.4686 143.555 30.3135 146.246 30.3135C147.502 30.3135 148.84 29.9535 149.969 28.9861C150.051 28.9036 150.066 28.8136 149.984 28.7311L149.229 27.7037Z" fill="white"/>
<path d="M73.2647 44.9153C72.7115 45.6577 71.8667 46.1152 70.6705 46.1152C69.6837 46.1152 69.2426 45.7027 69.2426 45.0578C69.2426 44.5028 69.6388 44.0828 70.4986 43.9403L73.2647 43.4828V44.9153ZM79.6642 36.2757C79.582 36.3057 79.5521 36.3882 79.6044 36.4932C80.0306 37.5806 80.8604 38.2256 82.0715 38.2256C83.2827 38.2256 84.1125 37.5806 84.5387 36.4932C84.5835 36.3807 84.5536 36.3057 84.4788 36.2757L83.35 35.7732C83.2752 35.7432 83.193 35.7732 83.1481 35.8857C82.9089 36.3882 82.5799 36.5982 82.079 36.5982C81.5781 36.5982 81.2492 36.3957 81.0099 35.8857C80.9651 35.7732 80.8829 35.7432 80.8081 35.7732L79.6792 36.2757H79.6642ZM78.3634 39.1181C78.2214 39.1181 78.1466 39.2006 78.1466 39.3356V47.4876C78.1466 47.6301 78.2214 47.7051 78.3634 47.7051H79.8063C79.9035 47.7051 79.9782 47.6601 80.0605 47.5626L81.9594 44.9603L84.1873 41.7129H84.2994L84.2172 44.2478V47.4801C84.2172 47.6226 84.2994 47.6976 84.434 47.6976H85.7872C85.9292 47.6976 86.004 47.6151 86.004 47.4801V39.3281C86.004 39.1856 85.9217 39.1106 85.7872 39.1106H84.434C84.2919 39.1106 84.1798 39.1556 84.105 39.2531L81.765 42.4029L79.9558 45.0353H79.8437L79.9259 42.5154V39.3281C79.9259 39.1856 79.8437 39.1106 79.7091 39.1106H78.3559L78.3634 39.1181ZM93.1586 41.1205C94.6164 41.1205 95.6855 42.0804 95.6855 43.5503C95.6855 45.0203 94.5192 46.1377 93.0913 46.1377C91.6633 46.1377 90.4971 44.9678 90.4971 43.5503C90.4971 42.1329 91.7232 41.1205 93.1511 41.1205H93.1586ZM90.4672 40.5355C91.0204 39.3356 91.8951 38.5931 93.3903 38.5931C95.4014 38.5931 96.4406 38.0606 96.9863 36.7182C97.0461 36.5607 97.0162 36.4482 96.8742 36.4032L95.7453 35.8482C95.6032 35.8032 95.5061 35.8332 95.4313 35.9757C95.1023 36.6057 94.6762 36.8457 93.4202 36.8457C91.155 36.8457 88.6281 38.3606 88.6281 42.9429C88.6281 45.7327 90.3251 47.8326 93.0913 47.8326C95.4836 47.8326 97.4573 45.9727 97.4573 43.5428C97.4573 41.113 95.6481 39.463 93.1959 39.463C92.0147 39.463 91.2148 39.8605 90.5419 40.5955L90.4597 40.5355H90.4672ZM105.92 39.1181C105.823 39.1181 105.763 39.1631 105.733 39.2456L103.61 45.2077H103.483L100.934 39.2456C100.904 39.1706 100.836 39.1181 100.747 39.1181H99.0198C98.9077 39.1181 98.8628 39.2156 98.9077 39.2906L102.571 47.2551L102.511 47.4726C102.339 48.0876 101.943 48.2901 101.397 48.2901C101.18 48.2901 100.986 48.2751 100.814 48.2451C100.672 48.2001 100.575 48.3051 100.575 48.4326V49.6175C100.575 49.76 100.635 49.835 100.762 49.8875C100.964 49.97 101.233 50 101.577 50C102.818 50 103.67 49.2575 104.186 47.9826L107.722 39.3281C107.767 39.2156 107.737 39.1256 107.625 39.1256H105.913L105.92 39.1181ZM109.89 39.1181C109.748 39.1181 109.673 39.2006 109.673 39.3356V40.6255C109.673 40.768 109.748 40.843 109.89 40.843H112.626V47.4801C112.626 47.6226 112.701 47.6976 112.843 47.6976H114.226C114.368 47.6976 114.443 47.6151 114.443 47.4801V40.843H117.179C117.321 40.843 117.396 40.768 117.396 40.6255V39.3356C117.396 39.1931 117.314 39.1181 117.179 39.1181H109.89ZM119.923 39.1181C119.781 39.1181 119.706 39.2006 119.706 39.3356V47.4876C119.706 47.6301 119.781 47.7051 119.923 47.7051H121.306C121.448 47.7051 121.523 47.6226 121.523 47.4876V44.1128H125.418V47.4876C125.418 47.6301 125.5 47.7051 125.635 47.7051H127.018C127.16 47.7051 127.235 47.6226 127.235 47.4876V39.3356C127.235 39.1931 127.152 39.1181 127.018 39.1181H125.635C125.493 39.1181 125.418 39.2006 125.418 39.3356V42.3804H121.523V39.3356C121.523 39.1931 121.441 39.1181 121.306 39.1181H119.923ZM135.578 42.5529C135.578 42.4104 135.496 42.3354 135.361 42.3354H131.84C132.199 41.3229 133.111 40.7305 134.292 40.7305C135.361 40.7305 136.034 41.1055 136.662 41.9154C136.722 41.9979 136.849 42.0579 136.961 41.9454L137.948 41.188C138.03 41.128 138.045 41.0455 137.978 40.933C137.238 39.763 135.795 38.9906 134.284 38.9906C131.773 38.9906 129.851 40.8505 129.851 43.3853C129.851 45.9202 131.765 47.8326 134.284 47.8326C135.907 47.8326 137.208 47.1876 138.023 45.8602C138.082 45.7852 138.067 45.6877 137.993 45.6052L137.006 44.8178C136.909 44.7353 136.834 44.7353 136.752 44.8178C136.109 45.7627 135.398 46.0927 134.284 46.0927C132.901 46.0927 131.915 45.3352 131.675 44.0153H135.354C135.496 44.0153 135.57 43.9328 135.57 43.7978V42.5529H135.578ZM62.559 39.1181C62.4169 39.1181 62.3197 39.1781 62.2749 39.2906L61.0787 42.1779L59.8377 45.3652H59.7779L58.5219 42.1779L57.2659 39.2906C57.2211 39.1781 57.1239 39.1181 57.0117 39.1181H55.1726C55.0306 39.1181 54.9558 39.2006 54.9558 39.3356V47.4876C54.9558 47.6301 55.0306 47.7051 55.1726 47.7051H56.4959C56.6379 47.7051 56.7127 47.6226 56.7127 47.4876V44.3678L56.6305 41.9904L56.7276 41.9754L58.0135 45.2452L58.9406 47.5551C58.9854 47.6676 59.0826 47.7126 59.1948 47.7126H60.2638C60.376 47.7126 60.4657 47.6676 60.518 47.5551L61.4899 45.2452L62.7459 41.9904L62.8431 42.0054L62.7608 44.3603V47.4876C62.7608 47.6301 62.8431 47.7126 62.9776 47.7126H64.3607C64.5028 47.7126 64.5775 47.6301 64.5775 47.4876V39.3281C64.5775 39.1856 64.5028 39.1106 64.3607 39.1106L62.5515 39.1256L62.559 39.1181ZM73.5787 46.7002L73.975 47.6901C74.0198 47.8176 74.117 47.8626 74.2441 47.8176L75.358 47.4576C75.53 47.4126 75.5449 47.2701 75.5001 47.1426L75.2982 46.4827C75.1263 45.9127 75.0964 45.3352 75.0964 44.6978V41.9529C75.0964 39.823 73.4142 38.9906 71.5602 38.9906C69.9902 38.9906 68.9211 39.4181 67.867 40.1905C67.7549 40.273 67.725 40.4305 67.8371 40.5505L68.4501 41.4204C68.5249 41.5329 68.7043 41.5479 68.8239 41.4654C69.7061 40.9105 70.4089 40.708 71.5602 40.708C72.5022 40.708 73.2722 41.008 73.2722 41.7504V41.9379L70.5061 42.2979C68.5697 42.5529 67.4259 43.5578 67.4259 45.1478C67.4259 46.7377 68.6819 47.8251 70.4911 47.8251C71.7471 47.8251 72.7414 47.4276 73.5114 46.6927H73.5937L73.5787 46.7002Z" fill="white"/>
</svg>
