<svg width="40" height="40" viewBox="0 0 40 40" fill="none" xmlns="http://www.w3.org/2000/svg">
<path d="M7.83333 30L11.6667 23.3333C9.83333 23.3333 8.26389 22.6806 6.95833 21.375C5.65278 20.0694 5 18.5 5 16.6667C5 14.8333 5.65278 13.2639 6.95833 11.9583C8.26389 10.6528 9.83333 10 11.6667 10C13.5 10 15.0694 10.6528 16.375 11.9583C17.6806 13.2639 18.3333 14.8333 18.3333 16.6667C18.3333 17.3056 18.2569 17.8958 18.1042 18.4375C17.9514 18.9792 17.7222 19.5 17.4167 20L11.6667 30H7.83333ZM22.8333 30L26.6667 23.3333C24.8333 23.3333 23.2639 22.6806 21.9583 21.375C20.6528 20.0694 20 18.5 20 16.6667C20 14.8333 20.6528 13.2639 21.9583 11.9583C23.2639 10.6528 24.8333 10 26.6667 10C28.5 10 30.0694 10.6528 31.375 11.9583C32.6806 13.2639 33.3333 14.8333 33.3333 16.6667C33.3333 17.3056 33.2569 17.8958 33.1042 18.4375C32.9514 18.9792 32.7222 19.5 32.4167 20L26.6667 30H22.8333ZM11.6667 19.1667C12.3611 19.1667 12.9514 18.9236 13.4375 18.4375C13.9236 17.9514 14.1667 17.3611 14.1667 16.6667C14.1667 15.9722 13.9236 15.3819 13.4375 14.8958C12.9514 14.4097 12.3611 14.1667 11.6667 14.1667C10.9722 14.1667 10.3819 14.4097 9.89583 14.8958C9.40972 15.3819 9.16667 15.9722 9.16667 16.6667C9.16667 17.3611 9.40972 17.9514 9.89583 18.4375C10.3819 18.9236 10.9722 19.1667 11.6667 19.1667ZM26.6667 19.1667C27.3611 19.1667 27.9514 18.9236 28.4375 18.4375C28.9236 17.9514 29.1667 17.3611 29.1667 16.6667C29.1667 15.9722 28.9236 15.3819 28.4375 14.8958C27.9514 14.4097 27.3611 14.1667 26.6667 14.1667C25.9722 14.1667 25.3819 14.4097 24.8958 14.8958C24.4097 15.3819 24.1667 15.9722 24.1667 16.6667C24.1667 17.3611 24.4097 17.9514 24.8958 18.4375C25.3819 18.9236 25.9722 19.1667 26.6667 19.1667Z" fill="#FFE100"/>
</svg>
