<svg width="281" height="51" viewBox="0 0 281 51" fill="none" xmlns="http://www.w3.org/2000/svg">
<path d="M19.4583 28.9619L17.1039 28.9619V21.6892L19.5329 21.6892C20.2455 21.6892 20.8574 21.8348 21.3688 22.126C21.8802 22.4148 22.272 22.8303 22.5442 23.3724C22.8189 23.9122 22.9562 24.5597 22.9562 25.3149C22.9562 26.0725 22.8177 26.7235 22.5407 27.268C22.2661 27.8125 21.8683 28.2316 21.3475 28.5251C20.8267 28.8163 20.1969 28.9619 19.4583 28.9619ZM18.2012 28.0031H19.3979C19.9519 28.0031 20.4124 27.8989 20.7793 27.6906C21.1463 27.4799 21.4209 27.1757 21.6032 26.778C21.7855 26.3779 21.8766 25.8902 21.8766 25.3149C21.8766 24.7443 21.7855 24.2602 21.6032 23.8625C21.4233 23.4648 21.1546 23.1629 20.7971 22.9569C20.4396 22.751 19.9957 22.648 19.4654 22.648L18.2012 22.648V28.0031ZM24.7207 28.9619V21.6892L29.2803 21.6892V22.6338L25.818 22.6338V24.8497L29.0424 24.8497V25.7907L25.818 25.7907V28.0173L29.323 28.0173V28.9619L24.7207 28.9619ZM31.7817 21.6892L33.8059 27.6125H33.8876L35.9117 21.6892H37.0978L34.4806 28.9619L33.2128 28.9619L30.5956 21.6892L31.7817 21.6892ZM38.548 28.9619V21.6892L43.1077 21.6892V22.6338L39.6453 22.6338V24.8497L42.8698 24.8497V25.7907L39.6453 25.7907V28.0173L43.1503 28.0173V28.9619L38.548 28.9619ZM44.9734 28.9619V21.6892L46.0707 21.6892V28.0173L49.3662 28.0173V28.9619L44.9734 28.9619ZM57.0522 25.3256C57.0522 26.1021 56.9102 26.7697 56.6261 27.3284C56.342 27.8847 55.9526 28.3132 55.4578 28.6139C54.9653 28.9122 54.4054 29.0613 53.7781 29.0613C53.1483 29.0613 52.5861 28.9122 52.0913 28.6139C51.5989 28.3132 51.2106 27.8836 50.9265 27.3248C50.6424 26.7661 50.5004 26.0997 50.5004 25.3256C50.5004 24.549 50.6424 23.8826 50.9265 23.3263C51.2106 22.7675 51.5989 22.339 52.0913 22.0407C52.5861 21.7401 53.1483 21.5898 53.7781 21.5898C54.4054 21.5898 54.9653 21.7401 55.4578 22.0407C55.9526 22.339 56.342 22.7675 56.6261 23.3263C56.9102 23.8826 57.0522 24.549 57.0522 25.3256ZM55.9656 25.3256C55.9656 24.7337 55.8697 24.2354 55.6779 23.8305C55.4885 23.4233 55.2281 23.1156 54.8967 22.9072C54.5676 22.6965 54.1947 22.5912 53.7781 22.5912C53.359 22.5912 52.985 22.6965 52.6559 22.9072C52.3268 23.1156 52.0664 23.4233 51.8747 23.8305C51.6853 24.2354 51.5906 24.7337 51.5906 25.3256C51.5906 25.9174 51.6853 26.4169 51.8747 26.8241C52.0664 27.229 52.3268 27.5367 52.6559 27.7474C52.985 27.9558 53.359 28.0599 53.7781 28.0599C54.1947 28.0599 54.5676 27.9558 54.8967 27.7474C55.2281 27.5367 55.4885 27.229 55.6779 26.8241C55.8697 26.4169 55.9656 25.9174 55.9656 25.3256ZM58.8203 28.9619V21.6892L61.4126 21.6892C61.9784 21.6892 62.4472 21.7922 62.8189 21.9981C63.1906 22.2041 63.4687 22.4858 63.6534 22.8433C63.8381 23.1984 63.9304 23.5985 63.9304 24.0436C63.9304 24.491 63.8369 24.8935 63.6498 25.251C63.4652 25.6061 63.1858 25.8878 62.8118 26.0961C62.4401 26.3021 61.9725 26.4051 61.4091 26.4051H59.6264V25.4747H61.3096C61.6671 25.4747 61.9571 25.4131 62.1797 25.29C62.4022 25.1646 62.5656 24.9941 62.6697 24.7787C62.7739 24.5632 62.826 24.3182 62.826 24.0436C62.826 23.769 62.7739 23.5251 62.6697 23.3121C62.5656 23.099 62.401 22.9321 62.1761 22.8113C61.9536 22.6906 61.66 22.6302 61.2954 22.6302L59.9176 22.6302V28.9619L58.8203 28.9619ZM65.6168 28.9619V21.6892L70.1764 21.6892V22.6338L66.7141 22.6338V24.8497L69.9385 24.8497V25.7907L66.7141 25.7907V28.0173L70.2191 28.0173V28.9619L65.6168 28.9619ZM74.3966 28.9619L72.0422 28.9619V21.6892L74.4711 21.6892C75.1837 21.6892 75.7957 21.8348 76.3071 22.126C76.8184 22.4148 77.2103 22.8303 77.4825 23.3724C77.7571 23.9122 77.8944 24.5597 77.8944 25.3149C77.8944 26.0725 77.7559 26.7235 77.479 27.268C77.2043 27.8125 76.8066 28.2316 76.2858 28.5251C75.7649 28.8163 75.1352 28.9619 74.3966 28.9619ZM73.1395 28.0031L74.3362 28.0031C74.8902 28.0031 75.3506 27.8989 75.7176 27.6906C76.0845 27.4799 76.3592 27.1757 76.5415 26.778C76.7238 26.3779 76.8149 25.8902 76.8149 25.3149C76.8149 24.7443 76.7238 24.2602 76.5415 23.8625C76.3615 23.4648 76.0928 23.1629 75.7354 22.9569C75.3779 22.751 74.934 22.648 74.4037 22.648L73.1395 22.648V28.0031ZM82.7055 28.9619V21.6892L85.3688 21.6892C85.8849 21.6892 86.3122 21.7744 86.6508 21.9449C86.9893 22.113 87.2426 22.3414 87.4107 22.6302C87.5788 22.9167 87.6628 23.2398 87.6628 23.5997C87.6628 23.9027 87.6072 24.1584 87.4959 24.3667C87.3847 24.5727 87.2355 24.7384 87.0485 24.8639C86.8638 24.987 86.6602 25.077 86.4377 25.1338V25.2048C86.6792 25.2166 86.9147 25.2948 87.1444 25.4392C87.3764 25.5812 87.5681 25.7836 87.7197 26.0464C87.8712 26.3092 87.9469 26.6288 87.9469 27.0052C87.9469 27.3769 87.8593 27.7107 87.6841 28.0067C87.5113 28.3002 87.2438 28.5334 86.8816 28.7062C86.5194 28.8767 86.0565 28.9619 85.4931 28.9619L82.7055 28.9619ZM83.8028 28.0209L85.3866 28.0209C85.9121 28.0209 86.2886 27.9191 86.5158 27.7155C86.7431 27.5119 86.8567 27.2574 86.8567 26.952C86.8567 26.7223 86.7987 26.5116 86.6827 26.3199C86.5667 26.1281 86.401 25.9754 86.1856 25.8618C85.9725 25.7481 85.7192 25.6913 85.4256 25.6913L83.8028 25.6913V28.0209ZM83.8028 24.8355L85.2729 24.8355C85.5191 24.8355 85.7405 24.7881 85.937 24.6934C86.1359 24.5988 86.2933 24.4662 86.4093 24.2957C86.5277 24.1229 86.5868 23.9193 86.5868 23.6849C86.5868 23.3843 86.4815 23.1321 86.2708 22.9285C86.0601 22.7249 85.7369 22.6231 85.3013 22.6231L83.8028 22.6231V24.8355ZM89.0873 21.6892L90.3338 21.6892L92.2336 24.9953H92.3118L94.2116 21.6892L95.4581 21.6892L92.8196 26.1068V28.9619H91.7258V26.1068L89.0873 21.6892Z" fill="white"/>
<path d="M105.667 33.3387V19.6774H109.554V21.172H107.538V31.8495H109.554V33.3387H105.667Z" fill="#F37024"/>
<path d="M115.807 27.2798C115.885 27.8719 116.562 28.2667 117.392 28.2667C118.264 28.2667 118.831 27.8834 118.831 27.3641C118.831 26.8851 118.46 26.6513 117.464 26.4482L116.312 26.2259C114.69 25.9212 113.855 25.0589 113.855 23.7481C113.855 22.0714 115.319 20.9925 117.355 20.9925C119.557 20.9925 120.857 22.0407 120.88 23.6638L118.813 23.6638C118.77 23.0353 118.179 22.6578 117.374 22.6578C116.57 22.6578 116.074 23.0046 116.074 23.5316C116.074 23.9992 116.465 24.2559 117.386 24.4418L118.526 24.6507C120.265 24.9803 121.046 25.7525 121.046 27.1188C121.046 28.8435 119.6 29.9319 117.337 29.9319C115.075 29.9319 113.705 28.9604 113.677 27.2798L115.807 27.2798Z" fill="#F3F3F3"/>
<path d="M128.724 29.9319L128.724 26.4539L125.21 26.4539L125.21 29.9319L122.979 29.9319L122.979 21.2934L125.216 21.2934L125.216 24.6813L128.73 24.6813L128.73 21.2934L130.961 21.2934L130.961 29.9319L128.724 29.9319Z" fill="#F3F3F3"/>
<path d="M132.894 29.9319L135.847 21.2934L138.58 21.2934L141.547 29.9319L139.165 29.9319L138.609 28.0348L135.736 28.0348L132.894 29.9319ZM136.167 26.4539L138.174 26.4539L137.198 23.1253L137.149 23.1253L136.167 26.4539Z" fill="#F3F3F3"/>
<path d="M143.48 29.9319L143.48 21.2934L147.292 21.2934C149.182 21.2934 150.462 22.4968 150.462 24.3594C150.462 26.222 149.115 27.4063 147.157 27.4063L145.719 27.4063L143.48 29.9319ZM145.719 25.7545L146.695 25.7545C147.645 25.7545 148.206 25.2696 148.206 24.3652C148.206 23.4607 147.645 22.9816 146.706 22.9816L145.73 22.9816L145.719 25.7545Z" fill="#F3F3F3"/>
<path d="M161.085 25.4651C161.085 28.2188 159.409 29.9319 156.742 29.9319C154.076 29.9319 152.395 28.2188 152.395 25.4651C152.395 22.7114 154.078 20.9925 156.742 20.9925C159.407 20.9925 161.085 22.7114 161.085 25.4651ZM154.675 25.4651C154.675 27.1054 155.487 28.1479 156.742 28.1479C157.997 28.1479 158.811 27.1054 158.811 25.4651C158.811 23.8248 157.993 22.7823 156.742 22.7823C155.491 22.7823 154.675 23.8267 154.675 25.4651Z" fill="#F3F3F3"/>
<path d="M166.141 23.5143L167.256 27.7819L167.305 27.7819L168.995 21.2934L171.447 21.2934L168.64 29.9319L165.823 29.9319L163.018 21.2934" fill="#F3F3F3"/>
<path d="M173.38 29.9319L176.337 21.2934L179.07 21.2934L182.027 29.9319L179.656 29.9319L179.099 28.0348L176.222 28.0348L173.38 29.9319ZM176.655 26.4539L178.662 26.4539L177.686 23.1253L177.637 23.1253L176.655 26.4539Z" fill="#F3F3F3"/>
<path d="M186.199 28.1594L189.84 28.1594L189.84 29.9319L183.96 29.9319L183.96 21.2934" fill="#F3F3F3"/>
<path d="M196.709 29.7096L199.723 20.9082L202.512 20.9082L205.526 29.7096L203.101 29.7096L202.529 27.7761L199.601 27.7761L196.709 29.7096ZM200.043 26.1665L202.088 26.1665L201.093 22.7747L201.044 22.7747L200.043 26.1665Z" fill="#F3F3F3"/>
<path d="M216.174 25.0627L216.174 26.1435C216.174 28.5465 214.658 30.0163 212.105 30.0163C209.339 30.0163 207.674 28.3395 207.674 25.4479C207.674 22.5926 209.339 20.9082 212.048 20.9082C214.222 20.9082 215.85 22.171 216.081 23.9742L213.826 23.9742C213.602 23.1943 212.93 22.7191 212.054 22.7191C210.762 22.7191 209.998 23.7117 209.998 25.4268C209.998 27.1418 210.844 28.2265 212.146 28.2265C213.178 28.2265 213.902 27.6286 213.961 26.7433L213.961 26.6091L212.321 26.6091" fill="#F3F3F3"/>
<path d="M224.469 29.7096L218.322 29.7096L218.322 20.9082L224.469 20.9082L224.469 22.7152L220.604 22.7152L220.604 24.4667L224.239 24.4667L224.239 26.1128L220.604 26.1128L220.604 27.9064L224.469 27.9064L224.469 29.7096Z" fill="#F3F3F3"/>
<path d="M226.617 29.7097L226.617 20.9082L228.436 20.9082L232.24 26.0266L232.289 26.0266L232.289 20.9082L234.452 20.9082L234.452 29.7097L232.65 29.7097L228.828 24.5357L228.78 24.5357L228.78 29.7097L226.617 29.7097Z" fill="#F3F3F3"/>
<path d="M236.6 25.4459C236.6 22.5715 238.281 20.9082 240.943 20.9082C243.205 20.9082 244.921 22.3377 244.989 24.4112L242.801 24.4112C242.69 23.3783 241.94 22.6865 240.943 22.6865C239.704 22.6865 238.917 23.727 238.917 25.4306C238.917 27.1342 239.698 28.2073 240.957 28.2073C241.954 28.2073 242.68 27.5615 242.823 26.5344L245.009 26.5344C244.904 28.6212 243.252 29.9952 240.951 29.9952C238.267 29.9894 236.6 28.3165 236.6 25.4459Z" fill="#F3F3F3"/>
<path d="M250.245 29.7096L250.245 26.6858L247.157 20.9082L249.605 20.9082L251.387 24.5683L251.432 24.5683L253.208 20.9082L255.613 20.9082L252.525 26.6858L252.525 29.7096L250.245 29.7096Z" fill="#F3F3F3"/>
<path d="M263.903 19.6774V33.3387H260.016V31.8495H262.032V21.172H260.016V19.6774H263.903Z" fill="#F37024"/>
</svg>
